<svg width="18" height="19" viewBox="0 0 18 19" fill="none" xmlns="http://www.w3.org/2000/svg">
<path d="M7.23935 11.8709C7.32007 12.0193 7.42139 12.1554 7.54027 12.2751C7.61764 12.3533 7.70243 12.4238 7.79342 12.4854C7.60802 12.2808 7.42333 12.076 7.23935 11.8709ZM6.02209 2.94745C6.26454 3.16112 6.50652 3.37575 6.74802 3.59133C6.68065 3.47748 6.59945 3.37246 6.50628 3.27869C6.36677 3.13909 6.20257 3.02677 6.02209 2.94745ZM2.79889 6.99745C2.85648 7.05515 2.91847 7.10825 2.9843 7.15627C2.845 7.00174 2.70476 6.84769 2.56357 6.69411C2.62968 6.80427 2.70869 6.9061 2.79889 6.99745ZM17.1022 11.9753L15.5056 10.5481L14.2477 9.42273C11.9049 7.32797 9.56262 5.23298 7.22081 3.13775C6.95696 2.89928 6.69312 2.66342 6.42927 2.4302C5.96956 2.01811 5.50937 1.60699 5.04871 1.19681C3.88708 0.160881 2.22271 0.297527 1.01116 1.49586C-0.200397 2.69419 -0.34373 4.42909 0.712367 5.60381C1.16257 6.10365 1.61301 6.60444 2.06369 7.10619C2.21344 7.2736 2.36414 7.44053 2.51579 7.60699C3.92297 9.16947 5.33181 10.731 6.74232 12.2916L7.33775 12.9512C7.85214 13.5235 8.36675 14.0935 8.88161 14.661L10.1809 16.1005C10.6534 16.6251 11.1257 17.1498 11.5978 17.6744C12.1369 18.2718 12.8058 18.5329 13.5995 18.5036C15.7851 18.432 18.0014 16.1427 17.9993 13.8533C18.0249 13.1451 17.6962 12.5069 17.1022 11.9753ZM9.01496 13.8354L8.6798 13.4656L8.31612 13.0635L8.10219 12.8296L7.792 12.4854C7.60659 12.2808 7.4219 12.076 7.23792 11.8709C7.06107 11.6756 6.88565 11.4803 6.70952 11.285L6.35725 10.8936L5.66198 10.1217L4.57094 8.91048C4.43355 8.75834 4.29616 8.60619 4.15877 8.45404C4.05798 8.34244 3.9572 8.23107 3.85641 8.11994L3.51698 7.74435L2.98358 7.15627C2.84429 7.00174 2.70405 6.84769 2.56286 6.69411C2.38315 6.4957 2.20274 6.29776 2.02161 6.10031L1.67362 5.72042C1.58187 5.61883 1.48941 5.51772 1.39623 5.41708C0.706662 4.6666 0.404309 3.87821 0.830741 2.91311C1.28498 1.88576 2.048 1.1961 3.20179 1.1918C3.66459 1.1918 4.23364 1.36994 4.57593 1.67114C4.75848 1.83139 4.94056 1.99236 5.12216 2.15404C5.24719 2.26374 5.37198 2.37392 5.49654 2.48457L6.02209 2.94959C6.26454 3.16327 6.50652 3.37789 6.74802 3.59347L7.26145 4.0492L7.9282 4.643L8.38601 5.05079L9.62038 6.15397L10.5367 6.97455L11.0059 7.39451C11.4466 7.78894 11.8868 8.18362 12.3266 8.57853L12.9969 9.1802L13.3791 9.52288L13.8783 9.97074L15.0071 10.9809L15.2738 11.2199C15.3451 11.2814 15.3965 11.3572 15.5106 11.4867C15.4043 11.5125 15.3009 11.5382 15.2004 11.5647C12.9427 12.1578 12.0927 13.0263 11.0815 15.7249C11.048 15.815 11.0138 15.908 10.9795 16.0025L10.598 15.5811C10.2073 15.1518 9.82005 14.7247 9.4364 14.2998C9.29473 14.1452 9.15425 13.9905 9.01496 13.8354ZM13.5217 17.8418C12.5234 17.8418 11.878 17.2959 11.7632 16.3845C11.7508 16.2848 11.7446 16.1845 11.7447 16.084C11.7447 16.0425 11.7447 16.001 11.7447 15.9588C11.8238 14.1796 13.787 12.2508 15.5612 12.21C15.6681 12.2075 15.7751 12.2122 15.8814 12.2243C16.8027 12.3309 17.3789 12.9998 17.3789 13.9936C17.3675 15.805 15.3344 17.8332 13.5217 17.8418Z" fill="#2C2C2E" stroke="#2C2C2E" stroke-width="0.2"/>
<path d="M11.5408 16.411C10.735 16.411 10.0126 16.1248 9.48777 15.6004C9.03006 15.1342 8.74972 14.5219 8.69552 13.8698C8.58071 12.713 9.07346 11.4595 10.0126 10.5173C10.7072 9.82051 11.5814 9.36049 12.4692 9.22242C12.7831 9.17327 13.1021 9.16678 13.4176 9.2031C14.0443 9.26933 14.63 9.54675 15.0792 9.99006C15.6404 10.5524 15.9256 11.3494 15.8821 12.2236L15.2403 12.1921C15.2738 11.4982 15.0549 10.8779 14.6242 10.4451C14.2766 10.1043 13.8241 9.89172 13.3406 9.84197C13.0829 9.81221 12.8224 9.81775 12.5662 9.85843C11.8103 9.97218 11.0651 10.37 10.4661 10.9738C9.66176 11.7779 9.23818 12.8339 9.33445 13.804C9.37476 14.3078 9.58944 14.7815 9.9413 15.1432C10.382 15.5847 11.0109 15.8036 11.724 15.7592L11.764 16.4031C11.687 16.4067 11.6135 16.411 11.5408 16.411Z" fill="#2C2C2E" stroke="#2C2C2E" stroke-width="0.2"/>
<path d="M7.79343 12.4862C7.77061 12.4711 7.7485 12.4547 7.7264 12.4382C7.70429 12.4218 7.67505 12.3982 7.65009 12.3774C7.62514 12.3567 7.618 12.3495 7.60232 12.3352C7.58663 12.3209 7.56024 12.2959 7.54028 12.2758C7.52031 12.2558 7.49749 12.2315 7.47752 12.2086C7.45756 12.1857 7.45399 12.1828 7.4433 12.1692C7.41192 12.1328 7.38268 12.0977 7.35487 12.0555L7.32563 12.014C7.3185 12.0033 7.31137 11.9925 7.30496 11.9818C7.28214 11.946 7.26003 11.9103 7.23935 11.8716C7.13247 11.6731 7.06013 11.4578 7.02542 11.2349C6.88993 10.3628 7.26431 9.35906 8.00664 8.61288C8.84881 7.76868 9.98834 7.40954 10.9118 7.69857C11.1927 7.78358 11.4483 7.93665 11.6563 8.14428C11.8153 8.30453 12.236 8.36463 12.3266 8.57353L12.6218 8.44619C12.5009 8.16295 12.3271 7.90553 12.1098 7.68784C11.8287 7.40542 11.4823 7.19724 11.1015 7.08188C10.9177 7.02472 10.7284 6.98708 10.5367 6.96956C9.52055 6.87226 8.40099 7.3058 7.55311 8.15644C6.78725 8.92409 6.35226 9.93856 6.35867 10.8901C6.35746 11.0378 6.36819 11.1855 6.39076 11.3315C6.44171 11.6696 6.55955 11.9941 6.73733 12.2859C6.83479 12.446 6.95089 12.5939 7.08318 12.7266C7.16124 12.8052 7.24464 12.8784 7.33277 12.9455C7.6007 13.147 7.90662 13.2918 8.23198 13.3711L8.30971 13.0585L7.79343 12.4862Z" fill="#2C2C2E" stroke="#2C2C2E" stroke-width="0.2"/>
<path d="M9.91632 6.02806L9.62039 6.15183L9.48989 5.99515C9.40931 5.80127 9.14618 5.74404 8.99999 5.59738C8.81031 5.40779 8.56215 5.43641 8.29545 5.35771C7.9802 5.26797 7.64853 5.25255 7.32635 5.31264C6.70767 5.43067 6.1401 5.73661 5.70049 6.18903C5.24976 6.62955 4.94503 7.19854 4.82766 7.81876C4.76543 8.1498 4.78278 8.49095 4.87829 8.81391C4.95887 9.07361 5.15355 9.25318 5.27549 9.48212C5.42737 9.76828 5.47016 10.0409 5.66341 10.1217L5.54005 10.4186C5.27146 10.307 5.02744 10.1434 4.82196 9.93712C4.5632 9.67767 4.37216 9.35823 4.26574 9.00708C4.21062 8.82762 4.17523 8.64266 4.1602 8.45549C4.15078 8.34606 4.14816 8.23615 4.15236 8.12639C4.15683 7.987 4.17113 7.8481 4.19514 7.71073C4.20869 7.63204 4.22509 7.55405 4.24435 7.47607C4.41637 6.81488 4.76385 6.21284 5.24981 5.73402C5.78207 5.1882 6.46861 4.81959 7.21654 4.67806C7.45187 4.63688 7.69131 4.62439 7.92963 4.64086C8.11596 4.65384 8.30032 4.68719 8.47943 4.7403C8.84147 4.84532 9.17116 5.04048 9.43784 5.30763C9.64295 5.51391 9.80555 5.75872 9.91632 6.02806Z" fill="#2C2C2E" stroke="#2C2C2E" stroke-width="0.2"/>
<path d="M4.45541 7.44746L4.56666 8.08132C4.42979 8.10592 4.29132 8.12051 4.15234 8.12496C4.15682 7.98557 4.17112 7.84667 4.19513 7.7093C4.20868 7.6306 4.22508 7.55262 4.24433 7.47464C4.31422 7.4682 4.38481 7.45962 4.45541 7.44746Z" fill="#2C2C2E" stroke="#2C2C2E" stroke-width="0.2"/>
<path d="M7.26144 4.04706H7.58234V4.01343L7.57521 3.98052C7.51252 3.67933 7.39137 3.39345 7.21866 3.13919C7.14166 3.02693 7.05479 2.92182 6.95909 2.82512C6.80242 2.66795 6.6231 2.53531 6.42712 2.43163C6.14754 2.28471 5.84212 2.19383 5.5279 2.16407H5.51079C5.38114 2.1519 5.25079 2.14903 5.12073 2.15548C4.28854 2.19197 3.43496 2.58473 2.7675 3.25294C2.06582 3.95691 1.67361 4.85334 1.67005 5.72114C1.66939 5.85612 1.67845 5.99097 1.69714 6.12464V6.14896C1.74481 6.49058 1.86652 6.81756 2.05369 7.10691C2.13684 7.23261 2.2324 7.34958 2.33893 7.45604C2.39217 7.51019 2.44861 7.56107 2.50794 7.60842C2.78009 7.82791 3.09824 7.98273 3.43853 8.06128L3.4749 8.06987C3.5984 8.09719 3.72379 8.11513 3.84999 8.12353L3.51055 7.74793L2.97716 7.15985C2.91133 7.11183 2.84934 7.05873 2.79175 7.00103C2.70154 6.90968 2.62254 6.80785 2.55643 6.69769C2.4447 6.50722 2.36994 6.29724 2.33608 6.07885L2.33251 6.05524C2.21485 5.27472 2.55429 4.37615 3.21818 3.71009C3.85997 3.06621 4.69501 2.73211 5.45802 2.80866H5.46729C5.65662 2.82745 5.84187 2.87573 6.01638 2.95175C6.1968 3.03085 6.36099 3.14293 6.50057 3.28227C6.59521 3.37442 6.67808 3.47799 6.7473 3.59062L7.26144 4.04706Z" fill="#2C2C2E" stroke="#2C2C2E" stroke-width="0.2"/>
</svg>
