<svg width="18" height="19" viewBox="0 0 18 19" fill="none" xmlns="http://www.w3.org/2000/svg">
<path d="M7.23932 11.8709C7.32004 12.0193 7.42136 12.1554 7.54024 12.2751C7.61761 12.3533 7.7024 12.4238 7.79339 12.4855C7.60799 12.2808 7.4233 12.076 7.23932 11.8709ZM6.02206 2.94746C6.26451 3.16113 6.50649 3.37576 6.74799 3.59134C6.68062 3.47749 6.59942 3.37248 6.50625 3.2787C6.36673 3.13911 6.20254 3.02678 6.02206 2.94746ZM2.79886 6.99746C2.85645 7.05516 2.91844 7.10827 2.98427 7.15629C2.84497 7.00175 2.70473 6.8477 2.56354 6.69412C2.62965 6.80428 2.70866 6.90612 2.79886 6.99746ZM17.1022 11.9754L15.5055 10.5481L14.2476 9.42274C11.9049 7.32799 9.56259 5.233 7.22078 3.13776C6.95693 2.89929 6.69308 2.66344 6.42924 2.43021C5.96953 2.01813 5.50934 1.607 5.04868 1.19683C3.88705 0.160896 2.22268 0.297542 1.01112 1.49587C-0.200428 2.6942 -0.343761 4.4291 0.712337 5.60382C1.16254 6.10366 1.61298 6.60446 2.06366 7.10621C2.21341 7.27361 2.36411 7.44055 2.51576 7.607C3.92294 9.16948 5.33178 10.731 6.74229 12.2916L7.33772 12.9512C7.85211 13.5235 8.36672 14.0935 8.88158 14.6611L10.1808 16.1005C10.6534 16.6251 11.1257 17.1498 11.5978 17.6744C12.1369 18.2718 12.8058 18.5329 13.5994 18.5036C15.7851 18.432 18.0014 16.1427 17.9992 13.8533C18.0249 13.1451 17.6962 12.5069 17.1022 11.9754ZM9.01493 13.8355L8.67977 13.4656L8.31609 13.0635L8.10216 12.8296L7.79197 12.4855C7.60656 12.2808 7.42187 12.076 7.23789 11.8709C7.06104 11.6756 6.88562 11.4803 6.70949 11.285L6.35722 10.8936L5.66195 10.1217L4.57091 8.9105C4.43352 8.75835 4.29613 8.60621 4.15874 8.45406C4.05795 8.34245 3.95717 8.23109 3.85638 8.11996L3.51695 7.74436L2.98355 7.15629C2.84426 7.00175 2.70402 6.8477 2.56282 6.69412C2.38312 6.49571 2.20271 6.29778 2.02158 6.10032L1.67359 5.72044C1.58184 5.61885 1.48937 5.51773 1.3962 5.4171C0.706631 4.66662 0.404279 3.87823 0.830711 2.91312C1.28495 1.88578 2.04797 1.19611 3.20176 1.19182C3.66456 1.19182 4.23361 1.36996 4.5759 1.67115C4.75845 1.83141 4.94053 1.99237 5.12213 2.15406C5.24716 2.26376 5.37195 2.37393 5.49651 2.48458L6.02206 2.94961C6.26451 3.16328 6.50649 3.37791 6.74799 3.59349L7.26142 4.04921L7.92817 4.64301L8.38598 5.0508L9.62035 6.15398L10.5367 6.97457L11.0059 7.39452C11.4466 7.78896 11.8868 8.18363 12.3266 8.57854L12.9969 9.18021L13.3791 9.5229L13.8783 9.97075L15.0071 10.9809L15.2738 11.2199C15.3451 11.2814 15.3964 11.3572 15.5105 11.4867C15.4043 11.5125 15.3009 11.5382 15.2003 11.5647C12.9427 12.1578 12.0927 13.0263 11.0815 15.7249C11.048 15.815 11.0137 15.908 10.9795 16.0025L10.598 15.5811C10.2072 15.1518 9.82001 14.7247 9.43637 14.2998C9.2947 14.1452 9.15422 13.9905 9.01493 13.8355ZM13.5217 17.8418C12.5234 17.8418 11.878 17.296 11.7632 16.3845C11.7508 16.2848 11.7446 16.1845 11.7447 16.084C11.7447 16.0425 11.7447 16.001 11.7447 15.9588C11.8238 14.1796 13.787 12.2508 15.5612 12.21C15.6681 12.2075 15.7751 12.2122 15.8813 12.2243C16.8027 12.3309 17.3788 12.9998 17.3788 13.9936C17.3674 15.805 15.3344 17.8332 13.5217 17.8418Z" fill="#E63946" stroke="#E63946" stroke-width="0.2"/>
<path d="M11.5407 16.411C10.7349 16.411 10.0126 16.1248 9.48774 15.6004C9.03003 15.1343 8.74969 14.5219 8.69549 13.8698C8.58068 12.713 9.07343 11.4596 10.0126 10.5173C10.7071 9.82052 11.5814 9.36051 12.4692 9.22243C12.783 9.17329 13.102 9.16679 13.4176 9.20312C14.0442 9.26934 14.63 9.54677 15.0791 9.99008C15.6403 10.5524 15.9256 11.3494 15.8821 12.2236L15.2403 12.1921C15.2738 11.4982 15.0549 10.8779 14.6242 10.4451C14.2765 10.1043 13.8241 9.89174 13.3406 9.84199C13.0829 9.81223 12.8224 9.81776 12.5662 9.85844C11.8103 9.97219 11.0651 10.37 10.4661 10.9738C9.66173 11.7779 9.23815 12.8339 9.33442 13.804C9.37473 14.3078 9.58941 14.7816 9.94127 15.1433C10.382 15.5847 11.0109 15.8036 11.724 15.7592L11.7639 16.4031C11.6869 16.4067 11.6135 16.411 11.5407 16.411Z" fill="#E63946" stroke="#E63946" stroke-width="0.2"/>
<path d="M7.79337 12.4862C7.77055 12.4711 7.74844 12.4547 7.72634 12.4382C7.70423 12.4218 7.67499 12.3982 7.65003 12.3774C7.62508 12.3567 7.61794 12.3495 7.60226 12.3352C7.58657 12.3209 7.56018 12.2959 7.54022 12.2758C7.52025 12.2558 7.49743 12.2315 7.47746 12.2086C7.4575 12.1857 7.45393 12.1828 7.44324 12.1692C7.41186 12.1327 7.38262 12.0977 7.35481 12.0555L7.32557 12.014C7.31844 12.0033 7.31131 11.9925 7.30489 11.9818C7.28208 11.946 7.25997 11.9102 7.23929 11.8716C7.13241 11.6731 7.06006 11.4578 7.02536 11.2349C6.88987 10.3628 7.26425 9.35906 8.00658 8.61287C8.84875 7.76867 9.98828 7.40953 10.9117 7.69856C11.1926 7.78357 11.4483 7.93665 11.6562 8.14427C11.8152 8.30453 12.236 8.36462 12.3265 8.57352L12.6217 8.44618C12.5009 8.16294 12.3271 7.90553 12.1097 7.68783C11.8287 7.40541 11.4822 7.19723 11.1014 7.08187C10.9176 7.02471 10.7283 6.98707 10.5367 6.96955C9.52049 6.87225 8.40092 7.3058 7.55305 8.15643C6.78718 8.92408 6.3522 9.93855 6.35861 10.8901C6.3574 11.0378 6.36813 11.1854 6.3907 11.3315C6.44165 11.6696 6.55948 11.9941 6.73727 12.2858C6.83473 12.446 6.95083 12.5939 7.08312 12.7265C7.16118 12.8052 7.24458 12.8784 7.3327 12.9455C7.60064 13.1469 7.90656 13.2918 8.23192 13.3711L8.30965 13.0585L7.79337 12.4862Z" fill="#E63946" stroke="#E63946" stroke-width="0.2"/>
<path d="M9.91629 6.02805L9.62036 6.15182L9.48986 5.99514C9.40928 5.80127 9.14615 5.74403 8.99996 5.59737C8.81028 5.40778 8.56212 5.4364 8.29542 5.3577C7.98017 5.26797 7.6485 5.25254 7.32632 5.31263C6.70764 5.43066 6.14007 5.7366 5.70046 6.18902C5.24973 6.62955 4.945 7.19853 4.82763 7.81875C4.7654 8.14979 4.78275 8.49094 4.87826 8.8139C4.95884 9.0736 5.15351 9.25317 5.27545 9.48211C5.42734 9.76828 5.47013 10.0409 5.66338 10.1217L5.54002 10.4186C5.27143 10.307 5.02741 10.1434 4.82193 9.93712C4.56317 9.67766 4.37213 9.35822 4.26571 9.00707C4.21059 8.82761 4.1752 8.64265 4.16017 8.45548C4.15075 8.34605 4.14813 8.23614 4.15233 8.12638C4.1568 7.98699 4.1711 7.84809 4.19511 7.71072C4.20866 7.63203 4.22506 7.55405 4.24432 7.47607C4.41634 6.81487 4.76382 6.21283 5.24978 5.73402C5.78204 5.18819 6.46858 4.81958 7.21651 4.67805C7.45184 4.63687 7.69128 4.62438 7.9296 4.64085C8.11593 4.65384 8.30029 4.68718 8.4794 4.7403C8.84144 4.84531 9.17113 5.04047 9.4378 5.30762C9.64292 5.5139 9.80552 5.75871 9.91629 6.02805Z" fill="#E63946" stroke="#E63946" stroke-width="0.2"/>
<path d="M4.45541 7.44745L4.56666 8.08131C4.42979 8.10592 4.29132 8.1205 4.15234 8.12495C4.15682 7.98556 4.17112 7.84666 4.19513 7.70929C4.20868 7.6306 4.22508 7.55262 4.24433 7.47463C4.31422 7.4682 4.38481 7.45961 4.45541 7.44745Z" fill="#E63946" stroke="#E63946" stroke-width="0.2"/>
<path d="M7.26147 4.04706H7.58237V4.01343L7.57524 3.98052C7.51255 3.67933 7.3914 3.39345 7.21869 3.13919C7.14169 3.02693 7.05482 2.92182 6.95912 2.82512C6.80245 2.66795 6.62313 2.53531 6.42715 2.43163C6.14757 2.28471 5.84215 2.19383 5.52793 2.16407H5.51082C5.38117 2.1519 5.25082 2.14903 5.12076 2.15548C4.28857 2.19197 3.43499 2.58473 2.76754 3.25294C2.06585 3.95691 1.67364 4.85334 1.67008 5.72114C1.66942 5.85612 1.67848 5.99097 1.69718 6.12464V6.14896C1.74484 6.49058 1.86655 6.81756 2.05372 7.10691C2.13687 7.23261 2.23243 7.34958 2.33896 7.45604C2.3922 7.51019 2.44864 7.56107 2.50797 7.60842C2.78012 7.82791 3.09827 7.98273 3.43856 8.06128L3.47493 8.06987C3.59843 8.09719 3.72382 8.11513 3.85002 8.12353L3.51058 7.74793L2.97719 7.15985C2.91136 7.11183 2.84937 7.05873 2.79178 7.00103C2.70158 6.90968 2.62258 6.80785 2.55646 6.69769C2.44473 6.50722 2.36997 6.29724 2.33611 6.07885L2.33255 6.05524C2.21488 5.27472 2.55432 4.37615 3.21821 3.71009C3.86 3.06621 4.69504 2.73211 5.45805 2.80866H5.46732C5.65665 2.82745 5.8419 2.87573 6.01641 2.95175C6.19683 3.03085 6.36102 3.14293 6.5006 3.28227C6.59524 3.37442 6.67811 3.47799 6.74733 3.59062L7.26147 4.04706Z" fill="#E63946" stroke="#E63946" stroke-width="0.2"/>
</svg>
