<svg width="26" height="26" viewBox="0 0 26 26" fill="none" xmlns="http://www.w3.org/2000/svg">
<path d="M10.4568 16.4246C10.5734 16.6389 10.7197 16.8355 10.8915 17.0085C11.0032 17.1215 11.1257 17.2232 11.2571 17.3123C10.9893 17.0168 10.7225 16.7209 10.4568 16.4246ZM8.69853 3.53521C9.04874 3.84385 9.39826 4.15386 9.7471 4.46526C9.64978 4.30081 9.53249 4.14912 9.39792 4.01367C9.19639 3.81203 8.95923 3.64978 8.69853 3.53521ZM4.0428 9.38521C4.12598 9.46855 4.21552 9.54526 4.31061 9.61462C4.10941 9.39141 3.90683 9.16889 3.70289 8.94705C3.79839 9.10617 3.9125 9.25326 4.0428 9.38521ZM24.7031 16.5755L22.3969 14.5139L20.5799 12.8884C17.1959 9.86263 13.8126 6.83653 10.43 3.81009C10.0489 3.46563 9.66779 3.12495 9.28668 2.78807C8.62265 2.19284 7.95794 1.59899 7.29254 1.00651C5.61462 -0.489832 3.21053 -0.292454 1.46051 1.43847C-0.289507 3.16939 -0.496543 5.67535 1.02893 7.37217C1.67922 8.09416 2.32986 8.81753 2.98084 9.54228C3.19714 9.78409 3.41482 10.0252 3.63388 10.2657C5.66647 12.5226 7.70146 14.7781 9.73886 17.0323L10.5989 17.985C11.3419 18.8118 12.0853 19.635 12.8289 20.4548L14.7057 22.534C15.3882 23.2918 16.0704 24.0496 16.7523 24.8075C17.531 25.6703 18.4972 26.0475 19.6436 26.0052C22.8007 25.9018 26.002 22.595 25.9989 19.2881C26.036 18.2651 25.5611 17.3433 24.7031 16.5755ZM13.0216 19.2623L12.5375 18.7281L12.0121 18.1473L11.7031 17.8094L11.2551 17.3123C10.9873 17.0168 10.7205 16.7209 10.4547 16.4246C10.1993 16.1425 9.9459 15.8604 9.69148 15.5783L9.18264 15.013L8.17837 13.898L6.60242 12.1485C6.40397 11.9287 6.20552 11.7089 6.00706 11.4892C5.86149 11.328 5.71591 11.1671 5.57033 11.0066L5.08004 10.4641L4.30958 9.61462C4.10838 9.39141 3.9058 9.16889 3.70186 8.94705C3.44229 8.66046 3.18169 8.37456 2.92007 8.08934L2.41741 7.54061C2.28488 7.39387 2.15132 7.24782 2.01673 7.10246C1.02069 6.01844 0.583958 4.87964 1.19992 3.48561C1.85604 2.00166 2.95818 1.00548 4.62476 0.999278C5.29325 0.999278 6.11522 1.25659 6.60963 1.69165C6.87332 1.92313 7.13632 2.15564 7.39863 2.38918C7.57923 2.54764 7.75949 2.70678 7.9394 2.86661L8.69853 3.53831C9.04874 3.84695 9.39826 4.15696 9.7471 4.46836L10.4887 5.12662L11.4518 5.98433L12.1131 6.57336L13.8961 8.16685L15.2196 9.35214L15.8974 9.95874C16.534 10.5285 17.1698 11.0986 17.805 11.669L18.7732 12.5381L19.3253 13.0331L20.0464 13.68L21.6769 15.1391L22.0621 15.4843C22.1651 15.5731 22.2393 15.6827 22.4041 15.8697C22.2506 15.9069 22.1013 15.9441 21.956 15.9823C18.695 16.839 17.4672 18.0936 16.0066 21.9915C15.9582 22.1217 15.9087 22.256 15.8593 22.3924L15.3082 21.7838C14.7438 21.1637 14.1845 20.5468 13.6303 19.933C13.4257 19.7098 13.2228 19.4862 13.0216 19.2623ZM19.5313 25.0493C18.0893 25.0493 17.1571 24.2608 16.9913 22.9443C16.9733 22.8003 16.9644 22.6553 16.9645 22.5102C16.9645 22.4503 16.9645 22.3904 16.9645 22.3294C17.0788 19.7594 19.9145 16.9734 22.4772 16.9145C22.6317 16.9108 22.7862 16.9177 22.9397 16.9351C24.2705 17.0891 25.1028 18.0553 25.1028 19.4907C25.0863 22.1072 22.1497 25.0369 19.5313 25.0493Z" fill="white" stroke="white" stroke-width="0.2"/>
<path d="M16.6699 22.9825C15.506 22.9825 14.4625 22.5692 13.7044 21.8117C13.0433 21.1384 12.6384 20.2538 12.5601 19.3119C12.3942 17.6409 13.106 15.8305 14.4625 14.4695C15.4658 13.463 16.7286 12.7985 18.011 12.5991C18.4643 12.5281 18.9251 12.5187 19.3809 12.5712C20.286 12.6668 21.1321 13.0675 21.7809 13.7079C22.5915 14.5201 23.0035 15.6713 22.9407 16.9341L22.0137 16.8886C22.0621 15.8863 21.7459 14.9903 21.1237 14.3651C20.6216 13.8729 19.9681 13.5658 19.2697 13.494C18.8975 13.451 18.5212 13.459 18.1511 13.5177C17.0592 13.682 15.9829 14.2566 15.1176 15.1288C13.9558 16.2903 13.3439 17.8156 13.483 19.2169C13.5412 19.9446 13.8513 20.6289 14.3595 21.1514C14.9961 21.789 15.9046 22.1052 16.9346 22.0411L16.9923 22.9712C16.8811 22.9763 16.775 22.9825 16.6699 22.9825Z" fill="white" stroke="white" stroke-width="0.2"/>
<path d="M11.2571 17.3134C11.2242 17.2917 11.1922 17.2679 11.1603 17.2441C11.1284 17.2204 11.0861 17.1863 11.0501 17.1563C11.014 17.1263 11.0037 17.116 10.9811 17.0953C10.9584 17.0746 10.9203 17.0385 10.8915 17.0095C10.8626 16.9806 10.8297 16.9455 10.8008 16.9124C10.772 16.8793 10.7668 16.8752 10.7514 16.8556C10.7061 16.8029 10.6638 16.7522 10.6237 16.6913L10.5814 16.6313C10.5711 16.6158 10.5608 16.6003 10.5516 16.5848C10.5186 16.5332 10.4867 16.4815 10.4568 16.4257C10.3024 16.139 10.1979 15.8279 10.1478 15.506C9.95208 14.2463 10.4928 12.7964 11.5651 11.7186C12.7816 10.4992 14.4276 9.98045 15.7614 10.3979C16.1671 10.5207 16.5365 10.7418 16.8368 11.0417C17.0665 11.2732 17.6742 11.36 17.805 11.6618L18.2315 11.4778C18.0569 11.0687 17.8058 10.6969 17.4919 10.3824C17.0859 9.9745 16.5855 9.67379 16.0354 9.50716C15.7699 9.4246 15.4965 9.37022 15.2196 9.34492C13.7519 9.20438 12.1347 9.83061 10.91 11.0593C9.80375 12.1681 9.17543 13.6335 9.1847 15.0079C9.18295 15.2213 9.19845 15.4345 9.23106 15.6455C9.30465 16.1339 9.47485 16.6026 9.73165 17.024C9.87242 17.2553 10.0401 17.469 10.2312 17.6606C10.344 17.7742 10.4644 17.8799 10.5917 17.9768C10.9787 18.2678 11.4206 18.477 11.8906 18.5917L12.0029 18.1401L11.2571 17.3134Z" fill="white" stroke="white" stroke-width="0.2"/>
<path d="M14.3236 7.98498L13.8962 8.16375L13.7077 7.93744C13.5913 7.65739 13.2112 7.57472 13.0001 7.36288C12.7261 7.08903 12.3676 7.13037 11.9824 7.01669C11.527 6.88707 11.0479 6.86479 10.5826 6.95159C9.68892 7.12208 8.86909 7.564 8.23411 8.21749C7.58305 8.8538 7.14289 9.67566 6.97335 10.5715C6.88346 11.0497 6.90853 11.5425 7.04649 12.009C7.16288 12.3841 7.44407 12.6435 7.62021 12.9742C7.83961 13.3875 7.90141 13.7812 8.18055 13.898L8.00235 14.3269C7.61439 14.1657 7.26192 13.9294 6.96511 13.6314C6.59135 13.2566 6.31541 12.7952 6.16169 12.288C6.08208 12.0288 6.03096 11.7616 6.00925 11.4913C5.99564 11.3332 5.99186 11.1744 5.99791 11.0159C6.00438 10.8146 6.02503 10.6139 6.05972 10.4155C6.07929 10.3018 6.10298 10.1892 6.13079 10.0766C6.37926 9.12149 6.88118 8.25188 7.58313 7.56026C8.35195 6.77184 9.34361 6.2394 10.4239 6.03498C10.7639 5.97549 11.1097 5.95745 11.454 5.98124C11.7231 6 11.9894 6.04816 12.2481 6.12488C12.7711 6.27657 13.2473 6.55847 13.6325 6.94436C13.9288 7.24231 14.1636 7.59592 14.3236 7.98498Z" fill="white" stroke="white" stroke-width="0.2"/>
<path d="M6.43557 10.0352L6.59625 10.9508C6.39856 10.9863 6.19854 11.0074 5.9978 11.0138C6.00427 10.8125 6.02492 10.6119 6.05961 10.4134C6.07918 10.2998 6.10287 10.1871 6.13068 10.0745C6.23162 10.0652 6.33359 10.0528 6.43557 10.0352Z" fill="white" stroke="white" stroke-width="0.2"/>
<path d="M10.4887 5.12353H10.9523V5.07496L10.942 5.02742C10.8514 4.59236 10.6764 4.17943 10.4269 3.81216C10.3157 3.65001 10.1902 3.49819 10.052 3.3585C9.82571 3.13149 9.56668 2.93989 9.28361 2.79014C8.87977 2.57792 8.4386 2.44665 7.98474 2.40366H7.96002C7.77274 2.38608 7.58446 2.38193 7.39659 2.39126C6.19455 2.44396 4.9616 3.01129 3.9975 3.97647C2.98395 4.99332 2.41743 6.28815 2.41228 7.54165C2.41133 7.73662 2.42441 7.9314 2.45142 8.12448V8.15962C2.52027 8.65306 2.69607 9.12537 2.96644 9.54332C3.08653 9.72488 3.22457 9.89384 3.37845 10.0476C3.45535 10.1258 3.53686 10.1993 3.62256 10.2677C4.01568 10.5848 4.47523 10.8084 4.96675 10.9219L5.01928 10.9343C5.19768 10.9737 5.3788 10.9996 5.56108 11.0118L5.07079 10.4692L4.30033 9.61979C4.20524 9.55043 4.1157 9.47373 4.03252 9.39038C3.90222 9.25843 3.78811 9.11134 3.69261 8.95222C3.53123 8.67709 3.42323 8.37379 3.37433 8.05835L3.36918 8.02424C3.19922 6.89682 3.68952 5.59889 4.64848 4.6368C5.5755 3.70676 6.78167 3.22416 7.8838 3.33474H7.89719C8.17066 3.36188 8.43824 3.43161 8.69031 3.54141C8.95093 3.65568 9.18809 3.81757 9.3897 4.01884C9.5264 4.15194 9.64611 4.30155 9.74609 4.46423L10.4887 5.12353Z" fill="white" stroke="white" stroke-width="0.2"/>
</svg>
