<svg width="24" height="18" viewBox="0 0 24 18" fill="none" xmlns="http://www.w3.org/2000/svg">
<path d="M20.6666 4.66667H17.4166V0.333336H2.24992C1.05825 0.333336 0.083252 1.30834 0.083252 2.5V14.4167H2.24992C2.24992 16.215 3.70159 17.6667 5.49992 17.6667C7.29825 17.6667 8.74992 16.215 8.74992 14.4167H15.2499C15.2499 16.215 16.7016 17.6667 18.4999 17.6667C20.2983 17.6667 21.7499 16.215 21.7499 14.4167H23.9166V9L20.6666 4.66667ZM5.49992 16.0417C4.60075 16.0417 3.87492 15.3158 3.87492 14.4167C3.87492 13.5175 4.60075 12.7917 5.49992 12.7917C6.39909 12.7917 7.12492 13.5175 7.12492 14.4167C7.12492 15.3158 6.39909 16.0417 5.49992 16.0417ZM20.1249 6.29167L22.2483 9H17.4166V6.29167H20.1249ZM18.4999 16.0417C17.6008 16.0417 16.8749 15.3158 16.8749 14.4167C16.8749 13.5175 17.6008 12.7917 18.4999 12.7917C19.3991 12.7917 20.1249 13.5175 20.1249 14.4167C20.1249 15.3158 19.3991 16.0417 18.4999 16.0417Z" fill="white"/>
</svg>
