<svg width="26" height="26" viewBox="0 0 26 26" fill="none" xmlns="http://www.w3.org/2000/svg">
<path d="M10.6537 16.1585C10.7613 16.3562 10.8963 16.5375 11.0547 16.6971C11.1578 16.8013 11.2708 16.8952 11.3921 16.9774C11.145 16.7047 10.8989 16.4318 10.6537 16.1585ZM9.03161 4.26723C9.3547 4.55196 9.67716 4.83797 9.99898 5.12525C9.9092 4.97354 9.80099 4.83359 9.67684 4.70863C9.49092 4.52261 9.27212 4.37293 9.03161 4.26723ZM4.73643 9.66419C4.81317 9.74108 4.89578 9.81184 4.9835 9.87583C4.79788 9.66991 4.61099 9.46462 4.42284 9.25996C4.51095 9.40676 4.61622 9.54246 4.73643 9.66419ZM23.7968 16.2977L21.6691 14.3957L19.9929 12.8961C16.8709 10.1046 13.7497 7.31289 10.629 4.52082C10.2774 4.20303 9.92581 3.88874 9.57421 3.57795C8.96161 3.02881 8.34837 2.48095 7.7345 1.93436C6.18653 0.553895 3.96862 0.735987 2.35412 2.33286C0.73963 3.92974 0.548627 6.24163 1.95596 7.80705C2.5559 8.47313 3.15614 9.14048 3.75671 9.8091C3.95626 10.0322 4.15709 10.2546 4.35918 10.4764C6.23436 12.5586 8.11176 14.6394 9.99137 16.719L10.7848 17.598C11.4703 18.3607 12.1561 19.1202 12.8422 19.8766L14.5735 21.7947C15.2032 22.4938 15.8326 23.193 16.4617 23.8921C17.1801 24.6882 18.0714 25.0361 19.1291 24.997C22.0416 24.9017 24.995 21.851 24.9922 18.8002C25.0264 17.8564 24.5883 17.006 23.7968 16.2977ZM13.0199 18.7764L12.5732 18.2835L12.0886 17.7477L11.8035 17.436L11.3902 16.9774C11.1431 16.7047 10.897 16.4318 10.6518 16.1585C10.4161 15.8982 10.1824 15.6379 9.94766 15.3777L9.47823 14.8562L8.55173 13.8275L7.09783 12.2135C6.91475 12.0107 6.73166 11.808 6.54858 11.6052C6.41427 11.4565 6.27997 11.3081 6.14567 11.16L5.69334 10.6595L4.98255 9.87583C4.79693 9.66991 4.61004 9.46462 4.42189 9.25996C4.18243 8.99557 3.94201 8.7318 3.70064 8.46868L3.23692 7.96244C3.11465 7.82707 2.99143 7.69233 2.86726 7.55822C1.94836 6.55815 1.54545 5.50754 2.11371 4.22146C2.71902 2.85244 3.7358 1.93341 5.27333 1.92769C5.89005 1.92769 6.64835 2.16507 7.10448 2.56643C7.34775 2.77999 7.59038 2.99449 7.83238 3.20995C7.99899 3.35613 8.16529 3.50295 8.33127 3.6504L9.03161 4.27009C9.3547 4.55482 9.67716 4.84083 9.99898 5.12811L10.6832 5.7354L11.5717 6.52669L12.1817 7.0701L13.8266 8.54018L15.0477 9.63368L15.673 10.1933C16.2602 10.7189 16.8469 11.2449 17.4329 11.7711L18.3261 12.5729L18.8355 13.0295L19.5006 13.6263L21.0049 14.9725L21.3603 15.2909C21.4553 15.3729 21.5237 15.474 21.6758 15.6465C21.5342 15.6808 21.3964 15.7152 21.2624 15.7504C18.2539 16.5408 17.1212 17.6981 15.7737 21.2942C15.7291 21.4143 15.6834 21.5383 15.6378 21.6641L15.1294 21.1026C14.6087 20.5306 14.0927 19.9614 13.5815 19.3951C13.3927 19.1892 13.2055 18.9829 13.0199 18.7764ZM19.0255 24.1152C17.6951 24.1152 16.8352 23.3878 16.6822 22.1732C16.6656 22.0404 16.6573 21.9066 16.6575 21.7728C16.6575 21.7175 16.6575 21.6622 16.6575 21.606C16.7629 19.235 19.379 16.6647 21.7433 16.6104C21.8857 16.607 22.0283 16.6133 22.1699 16.6294C23.3977 16.7715 24.1655 17.6629 24.1655 18.9871C24.1503 21.401 21.4411 24.1038 19.0255 24.1152Z" fill="white" stroke="white" stroke-width="0.2"/>
</svg>
