<svg width="18" height="19" viewBox="0 0 18 19" fill="none" xmlns="http://www.w3.org/2000/svg">
<path d="M7.23932 11.8709C7.32004 12.0193 7.42136 12.1554 7.54024 12.2751C7.61761 12.3533 7.7024 12.4238 7.79339 12.4854C7.60799 12.2808 7.4233 12.076 7.23932 11.8709ZM6.02206 2.94745C6.26451 3.16112 6.50649 3.37575 6.74799 3.59133C6.68062 3.47748 6.59942 3.37246 6.50625 3.27869C6.36673 3.13909 6.20254 3.02677 6.02206 2.94745V2.94745ZM2.79886 6.99745C2.85645 7.05515 2.91844 7.10825 2.98427 7.15627C2.84497 7.00174 2.70473 6.84769 2.56354 6.69411C2.62965 6.80427 2.70866 6.9061 2.79886 6.99745V6.99745ZM17.1022 11.9753L15.5055 10.5481L14.2476 9.42273C11.9049 7.32797 9.56259 5.23298 7.22078 3.13775C6.95693 2.89928 6.69308 2.66342 6.42924 2.4302C5.96953 2.01811 5.50934 1.60699 5.04868 1.19681C3.88705 0.160881 2.22268 0.297527 1.01112 1.49586C-0.200428 2.69419 -0.343761 4.42908 0.712337 5.60381C1.16254 6.10365 1.61298 6.60444 2.06366 7.10619C2.21341 7.2736 2.36411 7.44053 2.51576 7.60699C3.92294 9.16947 5.33178 10.731 6.74229 12.2916L7.33772 12.9512C7.8521 13.5235 8.36672 14.0935 8.88158 14.661L10.1808 16.1005C10.6534 16.6251 11.1257 17.1498 11.5978 17.6744C12.1369 18.2718 12.8058 18.5329 13.5994 18.5036C15.7851 18.432 18.0014 16.1427 17.9992 13.8533C18.0249 13.1451 17.6962 12.5069 17.1022 11.9753ZM9.01493 13.8354L8.67977 13.4656L8.31609 13.0635L8.10216 12.8296L7.79197 12.4854C7.60656 12.2808 7.42187 12.076 7.23789 11.8709C7.06104 11.6756 6.88562 11.4803 6.70949 11.285L6.35722 10.8936L5.66195 10.1217L4.57091 8.91048C4.43352 8.75834 4.29613 8.60619 4.15874 8.45404C4.05795 8.34244 3.95717 8.23107 3.85638 8.11994L3.51695 7.74435L2.98355 7.15627C2.84426 7.00174 2.70402 6.84769 2.56282 6.69411C2.38312 6.4957 2.20271 6.29777 2.02158 6.10031L1.67359 5.72042C1.58184 5.61883 1.48937 5.51772 1.3962 5.41708C0.706631 4.6666 0.404279 3.87821 0.830711 2.91311C1.28495 1.88576 2.04797 1.1961 3.20176 1.1918C3.66456 1.1918 4.23361 1.36994 4.5759 1.67114C4.75845 1.83139 4.94053 1.99236 5.12213 2.15404C5.24716 2.26374 5.37195 2.37392 5.49651 2.48457L6.02206 2.94959C6.26451 3.16327 6.50649 3.37789 6.74799 3.59347L7.26142 4.0492L7.92817 4.643L8.38598 5.05079L9.62035 6.15397L10.5367 6.97455L11.0059 7.39451C11.4466 7.78894 11.8868 8.18362 12.3266 8.57853L12.9969 9.1802L13.3791 9.52288L13.8783 9.97074L15.0071 10.9809L15.2738 11.2199C15.3451 11.2814 15.3964 11.3572 15.5105 11.4867C15.4043 11.5125 15.3009 11.5382 15.2003 11.5647C12.9427 12.1578 12.0927 13.0263 11.0815 15.7249C11.048 15.815 11.0137 15.908 10.9795 16.0025L10.598 15.5811C10.2072 15.1518 9.82002 14.7247 9.43637 14.2998C9.2947 14.1452 9.15422 13.9905 9.01493 13.8354ZM13.5217 17.8418C12.5234 17.8418 11.878 17.2959 11.7632 16.3845C11.7508 16.2848 11.7446 16.1845 11.7447 16.084C11.7447 16.0425 11.7447 16.001 11.7447 15.9588C11.8238 14.1796 13.787 12.2508 15.5612 12.21C15.6681 12.2075 15.7751 12.2122 15.8813 12.2243C16.8027 12.3309 17.3788 12.9998 17.3788 13.9936C17.3674 15.805 15.3344 17.8332 13.5217 17.8418Z" fill="#E63946" stroke="#E63946" stroke-width="0.2"/>
</svg>
