<svg width="18" height="23" viewBox="0 0 18 23" fill="none" xmlns="http://www.w3.org/2000/svg">
<path d="M13 11.5L9 7.49996L9 10.5L-5.24537e-07 10.5L-4.37114e-07 12.5L9 12.5L9 15.5L13 11.5ZM-8.74228e-07 2.49996L-6.11959e-07 8.49996L1.99 8.49996L1.99 2.49996L16.02 2.49996L16.02 20.5L1.99 20.5L1.99 14.5L-3.49691e-07 14.5L-8.74228e-08 20.5C-3.93402e-08 21.6 0.9 22.5 2 22.5L16 22.5C17.1 22.5 18 21.6 18 20.5L18 2.49996C18 1.39996 17.1 0.499958 16 0.499959L2 0.499959C0.899999 0.499959 -9.2231e-07 1.39996 -8.74228e-07 2.49996Z" fill="white"/>
</svg>
