<svg width="19" height="19" viewBox="0 0 19 19" fill="none" xmlns="http://www.w3.org/2000/svg">
<g clip-path="url(#clip0_147_19521)">
<g clip-path="url(#clip1_147_19521)">
<path d="M10 0C5.032 0 1 4.032 1 9C1 13.968 5.032 18 10 18C14.968 18 19 13.968 19 9C19 4.032 14.968 0 10 0ZM10.9 15.3H9.1V13.5H10.9V15.3ZM12.763 8.325L11.953 9.153C11.305 9.81 10.9 10.35 10.9 11.7H9.1V11.25C9.1 10.26 9.505 9.36 10.153 8.703L11.269 7.569C11.602 7.245 11.8 6.795 11.8 6.3C11.8 5.31 10.99 4.5 10 4.5C9.01 4.5 8.2 5.31 8.2 6.3H6.4C6.4 4.311 8.011 2.7 10 2.7C11.989 2.7 13.6 4.311 13.6 6.3C13.6 7.092 13.276 7.812 12.763 8.325Z" fill="#E63946"/>
</g>
</g>
<defs>
<clipPath id="clip0_147_19521">
<rect width="19" height="19" fill="white"/>
</clipPath>
<clipPath id="clip1_147_19521">
<rect width="19" height="19" fill="white" transform="translate(0 -0.5)"/>
</clipPath>
</defs>
</svg>
