<svg width="18" height="23" viewBox="0 0 18 23" fill="none" xmlns="http://www.w3.org/2000/svg">
<path d="M15.4999 7.66667H14.4166V5.5C14.4166 2.51 11.9899 0.0833321 8.99992 0.0833321C6.00992 0.0833321 3.58325 2.51 3.58325 5.5V7.66667H2.49992C1.30825 7.66667 0.333252 8.64167 0.333252 9.83333V20.6667C0.333252 21.8583 1.30825 22.8333 2.49992 22.8333H15.4999C16.6916 22.8333 17.6666 21.8583 17.6666 20.6667V9.83333C17.6666 8.64167 16.6916 7.66667 15.4999 7.66667ZM8.99992 17.4167C7.80825 17.4167 6.83325 16.4417 6.83325 15.25C6.83325 14.0583 7.80825 13.0833 8.99992 13.0833C10.1916 13.0833 11.1666 14.0583 11.1666 15.25C11.1666 16.4417 10.1916 17.4167 8.99992 17.4167ZM12.3583 7.66667H5.64158V5.5C5.64158 3.6475 7.14742 2.14167 8.99992 2.14167C10.8524 2.14167 12.3583 3.6475 12.3583 5.5V7.66667Z" fill="white"/>
</svg>
