<svg width="23" height="22" viewBox="0 0 23 22" fill="none" xmlns="http://www.w3.org/2000/svg">
<path d="M22.8901 17.5616C22.8448 17.4343 22.7392 17.238 22.6637 17.1253C22.1882 16.4347 19.6335 14.5116 18.3579 13.8827C17.6296 13.5228 17.09 13.4029 16.69 13.5155C16.2598 13.6319 16.0333 13.8245 15.3126 14.6861C15.022 15.0314 14.7239 15.355 14.6446 15.4058C14.4484 15.5367 14.0635 15.6422 13.7918 15.6422C13.1616 15.6385 12.0181 15.2459 11.1389 14.7297C10.4558 14.3299 9.58039 13.6137 8.90863 12.9048C8.11612 12.0723 7.57655 11.338 7.15008 10.5092C6.59915 9.44404 6.45952 8.79331 6.68969 8.31707C6.7463 8.19712 6.82179 8.06992 6.85571 8.02987C6.8897 7.99358 7.24444 7.71363 7.63686 7.40826C8.40673 6.81937 8.53125 6.68487 8.67464 6.28135C8.85577 5.76875 8.80675 5.24528 8.52749 4.71818C8.31237 4.31828 7.7501 3.44583 7.34255 2.88238C6.80291 2.14081 5.45948 0.555832 5.19151 0.34129C4.70848 -0.0367413 4.08966 -0.102217 3.40655 0.152304C2.68584 0.42132 1.33482 1.46827 0.757437 2.19897C0.236667 2.86057 0.0367261 3.3295 0.00650563 3.9475C-0.0198917 4.45641 0.0253759 4.66726 0.304635 5.318C2.4896 10.4219 5.75002 14.497 10.2294 17.7325C12.5691 19.4228 14.9956 20.7097 17.5126 21.5895C18.9806 22.102 19.6183 22.1275 20.3693 21.7058C20.6863 21.524 21.4712 20.7497 21.9089 20.1863C22.6335 19.2483 22.9014 18.8158 22.9769 18.4704C23.0297 18.2341 22.9882 17.8234 22.8901 17.5616Z" fill="white"/>
</svg>
