<svg width="24" height="27" viewBox="0 0 24 27" fill="none" xmlns="http://www.w3.org/2000/svg">
<g clip-path="url(#clip0_111_1773)">
<path d="M23.9871 7.50763C23.9871 9.44729 24.0306 11.3887 23.9574 13.3257C23.9386 13.8245 23.6914 14.4355 23.3127 14.7854C19.1211 18.6569 14.8962 22.4983 10.6379 26.3094C10.2296 26.6745 9.52656 26.9311 8.94913 26.95C6.63149 27.0226 4.30891 27.002 1.9883 26.9778C0.62679 26.9634 0.0107972 26.3578 0.0107972 25.0937C0.00387595 21.3257 -0.0208371 17.5576 0.0414544 13.7895C0.070931 13.1932 0.328221 12.6248 0.769175 12.1818C4.93248 8.32584 9.13435 4.50394 13.3748 0.71613C13.8019 0.334837 14.5326 0.064794 15.1348 0.0450565C17.4524 -0.0303049 19.775 0.0073749 22.0956 0.0217294C23.381 0.0289067 23.9742 0.586042 23.9831 1.77119C23.994 3.68393 23.9861 5.59578 23.9871 7.50763ZM10.2434 24.9601C10.5321 24.8066 10.6518 24.769 10.7319 24.6963C14.5959 21.1974 18.4659 17.6985 22.3003 14.1762C22.617 13.8542 22.7987 13.4413 22.8134 13.0099C22.852 9.35398 22.8194 5.69716 22.851 2.04124C22.8569 1.2957 22.5296 1.08128 21.7634 1.09204C19.6277 1.12075 17.489 1.07769 15.3543 1.13511C14.8582 1.16572 14.389 1.35042 14.0254 1.65815C11.1323 4.23838 8.29063 6.86167 5.41039 9.46343C4.3633 10.4081 3.26875 11.3107 2.19595 12.233L2.36205 12.4555C2.65176 12.4698 2.94246 12.4958 3.23216 12.4967C5.06432 12.4967 6.89054 12.4967 8.72666 12.4967C9.95864 12.4967 10.2325 12.7425 10.2345 13.8586C10.2404 17.208 10.2424 20.5595 10.2404 23.9131L10.2434 24.9601ZM9.71739 19.5098C9.71739 17.6554 9.68872 15.801 9.73222 13.9474C9.74903 13.2387 9.51173 12.9543 8.70194 12.9659C6.53657 12.9964 4.37121 12.9941 2.20584 12.9588C1.42868 12.948 1.20324 13.2468 1.2072 13.9062C1.22829 17.6144 1.22829 21.3227 1.2072 25.0309C1.2072 25.728 1.52162 25.964 2.24242 25.9577C4.37681 25.9416 6.51186 25.9416 8.64756 25.9577C9.40594 25.964 9.74804 25.7361 9.72925 24.9915C9.69069 23.164 9.72036 21.3373 9.72036 19.5098H9.71739Z" fill="white" stroke="white" stroke-width="0.2"/>
<path fill-rule="evenodd" clip-rule="evenodd" d="M8.34517 24.5508C8.34517 23.9696 8.34539 23.3907 8.3456 22.8136C8.34566 22.6444 8.34572 22.4753 8.34578 22.3063C8.34572 22.4751 8.34566 22.6441 8.3456 22.8132V22.8136L8.3456 22.8136L8.3456 22.8157C8.34539 23.3921 8.34517 23.9703 8.34517 24.5508ZM3.72062 14.2792C3.76636 14.2791 3.81208 14.279 3.85778 14.279ZM7.90518 14.6811C7.87912 14.6529 7.85456 14.6316 7.83605 14.6183C6.51712 14.5925 5.19758 14.5945 3.86054 14.5966C3.60788 14.597 3.3546 14.5974 3.10059 14.5976V24.2331H8.00234L8.00274 22.813C8.00374 20.1112 8.00472 17.4519 7.98369 14.7925C7.98184 14.7882 7.97892 14.7821 7.97454 14.7743C7.95957 14.7474 7.93539 14.7139 7.90518 14.6811Z" fill="white"/>
</g>
<defs>
<clipPath id="clip0_111_1773">
<rect width="24" height="27" fill="white"/>
</clipPath>
</defs>
</svg>
