<svg width="14" height="17" viewBox="0 0 14 17" fill="none" xmlns="http://www.w3.org/2000/svg">
<path d="M13.9925 4.72685C13.9925 5.94812 14.0179 7.17051 13.9752 8.39008C13.9642 8.70415 13.8201 9.08884 13.5992 9.30914C11.154 11.7468 8.68947 14.1654 6.20551 16.565C5.9673 16.7949 5.55721 16.9565 5.22037 16.9683C3.86842 17.0141 2.51358 17.0011 1.15989 16.9858C0.365678 16.9768 0.00634924 16.5955 0.00634924 15.7996C0.00231183 13.4271 -0.0121041 11.0546 0.0242326 8.68213C0.0414273 8.30667 0.191513 7.94877 0.448736 7.66986C2.87733 5.24202 5.32842 2.83563 7.80201 0.450719C8.05118 0.210646 8.47741 0.040619 8.82867 0.0281917C10.1806 -0.019258 11.5355 0.00446628 12.8891 0.0135043C13.639 0.0180234 13.985 0.368813 13.9902 1.11502C13.9965 2.31934 13.9919 3.52309 13.9925 4.72685ZM5.97538 15.7154C6.14379 15.6188 6.21358 15.5951 6.2603 15.5493C8.51432 13.3463 10.7718 11.1433 13.0085 8.92558C13.1933 8.72286 13.2993 8.46287 13.3079 8.19124C13.3304 5.88936 13.3113 3.58692 13.3298 1.28505C13.3333 0.815631 13.1423 0.680628 12.6953 0.687407C11.4495 0.705483 10.202 0.678368 8.95671 0.71452C8.66735 0.733795 8.39361 0.850089 8.18153 1.04384C6.49389 2.66843 4.83625 4.32013 3.15611 5.95828C2.54531 6.5531 1.90682 7.12136 1.28102 7.70206L1.37792 7.84215C1.54691 7.85119 1.71648 7.86757 1.88548 7.86813C2.95424 7.86813 4.01953 7.86813 5.0906 7.86813C5.80926 7.86813 5.96903 8.02291 5.97018 8.72561C5.97364 10.8345 5.9748 12.9447 5.97364 15.0562L5.97538 15.7154ZM5.66853 12.2838C5.66853 11.1162 5.6518 9.94858 5.67718 8.78154C5.68699 8.33528 5.54856 8.15622 5.07618 8.16356C3.81305 8.18277 2.54992 8.18127 1.28679 8.15905C0.833445 8.15227 0.701943 8.34037 0.70425 8.75556C0.716554 11.0904 0.716554 13.4252 0.70425 15.76C0.70425 16.199 0.887662 16.3475 1.30813 16.3436C2.55319 16.3334 3.79863 16.3334 5.04446 16.3436C5.48685 16.3475 5.68641 16.204 5.67545 15.7352C5.65295 14.5845 5.67026 13.4344 5.67026 12.2838H5.66853Z" fill="#2C2C2E" stroke="#2C2C2E" stroke-width="0.2"/>
<path fill-rule="evenodd" clip-rule="evenodd" d="M4.86822 14.3641C4.86825 14.2575 4.86829 14.151 4.86832 14.0447C4.86829 14.151 4.86825 14.2575 4.86822 14.3641V14.3641ZM4.6113 9.24366C4.59611 9.22588 4.58177 9.21249 4.57098 9.20409C3.8016 9.18786 3.03187 9.18915 2.25193 9.19045L2.25193 9.19045L1.80862 9.19107V15.2579H4.66798L4.66822 14.3637C4.6688 12.6626 4.66937 10.9882 4.6571 9.31378C4.65602 9.31109 4.65432 9.30725 4.65177 9.3023C4.64303 9.28537 4.62893 9.26429 4.6113 9.24366Z" fill="#2C2C2E"/>
</svg>
