<svg width="14" height="17" viewBox="0 0 14 17" fill="none" xmlns="http://www.w3.org/2000/svg">
<path d="M13.9925 4.72686C13.9925 5.94812 14.0179 7.17052 13.9752 8.39009C13.9642 8.70416 13.8201 9.08884 13.5992 9.30915C11.154 11.7468 8.68947 14.1654 6.20551 16.565C5.9673 16.7949 5.55721 16.9565 5.22037 16.9683C3.86842 17.0141 2.51358 17.0011 1.15989 16.9858C0.365678 16.9768 0.00634924 16.5955 0.00634924 15.7996C0.00231183 13.4271 -0.0121041 11.0546 0.0242326 8.68213C0.0414273 8.30667 0.191513 7.94878 0.448736 7.66987C2.87733 5.24202 5.32842 2.83564 7.80201 0.450727C8.05118 0.210654 8.47741 0.0406267 8.82867 0.0281993C10.1806 -0.0192504 11.5355 0.00447391 12.8891 0.013512C13.639 0.018031 13.985 0.36882 13.9902 1.11502C13.9965 2.31934 13.9919 3.5231 13.9925 4.72686ZM5.97538 15.7154C6.14379 15.6188 6.21358 15.5951 6.2603 15.5494C8.51432 13.3463 10.7718 11.1433 13.0085 8.92559C13.1933 8.72287 13.2993 8.46288 13.3079 8.19125C13.3304 5.88937 13.3113 3.58693 13.3298 1.28505C13.3333 0.815639 13.1423 0.680636 12.6953 0.687414C11.4495 0.70549 10.202 0.678375 8.95671 0.714527C8.66735 0.733802 8.39361 0.850097 8.18153 1.04385C6.49389 2.66844 4.83625 4.32014 3.15611 5.95829C2.54531 6.5531 1.90682 7.12137 1.28102 7.70206L1.37792 7.84216C1.54691 7.8512 1.71648 7.86758 1.88548 7.86814C2.95424 7.86814 4.01953 7.86814 5.0906 7.86814C5.80926 7.86814 5.96903 8.02291 5.97018 8.72562C5.97364 10.8345 5.9748 12.9447 5.97364 15.0562L5.97538 15.7154ZM5.66853 12.2838C5.66853 11.1162 5.6518 9.94858 5.67718 8.78154C5.68699 8.33529 5.54856 8.15623 5.07618 8.16357C3.81305 8.18278 2.54992 8.18127 1.28679 8.15906C0.833445 8.15228 0.701943 8.34038 0.70425 8.75556C0.716554 11.0904 0.716554 13.4252 0.70425 15.76C0.70425 16.199 0.887662 16.3475 1.30813 16.3436C2.55319 16.3334 3.79863 16.3334 5.04446 16.3436C5.48685 16.3475 5.68641 16.204 5.67545 15.7352C5.65295 14.5845 5.67026 13.4344 5.67026 12.2838H5.66853Z" fill="#E63946" stroke="#E63946" stroke-width="0.2"/>
<mask id="path-2-inside-1_147_19480" fill="white">
<path fill-rule="evenodd" clip-rule="evenodd" d="M4.86818 14.3641C4.86822 14.2575 4.86826 14.1511 4.86829 14.0447C4.86826 14.1511 4.86822 14.2575 4.86818 14.3641V14.3641ZM4.61127 9.24368C4.59607 9.22589 4.58174 9.21251 4.57095 9.20411C3.80157 9.18788 3.03184 9.18916 2.2519 9.19047L2.2519 9.19047L1.80859 9.19109V15.2579H4.66795L4.66818 14.3637C4.66877 12.6626 4.66934 10.9882 4.65707 9.31379C4.65599 9.3111 4.65429 9.30726 4.65174 9.30231C4.643 9.28538 4.6289 9.26431 4.61127 9.24368Z"/>
</mask>
<path fill-rule="evenodd" clip-rule="evenodd" d="M4.86818 14.3641C4.86822 14.2575 4.86826 14.1511 4.86829 14.0447C4.86826 14.1511 4.86822 14.2575 4.86818 14.3641V14.3641ZM4.61127 9.24368C4.59607 9.22589 4.58174 9.21251 4.57095 9.20411C3.80157 9.18788 3.03184 9.18916 2.2519 9.19047L2.2519 9.19047L1.80859 9.19109V15.2579H4.66795L4.66818 14.3637C4.66877 12.6626 4.66934 10.9882 4.65707 9.31379C4.65599 9.3111 4.65429 9.30726 4.65174 9.30231C4.643 9.28538 4.6289 9.26431 4.61127 9.24368Z" fill="#E63946"/>
<path d="M4.86818 14.3641H4.66818L5.06818 14.3642L4.86818 14.3641ZM4.86818 14.3641L4.66818 14.364V14.3641H4.86818ZM4.57095 9.20411L4.69383 9.04631L4.64149 9.00555L4.57517 9.00415L4.57095 9.20411ZM4.61127 9.24368L4.45922 9.3736L4.45922 9.3736L4.61127 9.24368ZM2.2519 9.19047L2.25219 9.39047L2.25223 9.39047L2.2519 9.19047ZM2.2519 9.19047L2.25218 9.39047L2.25219 9.39047L2.2519 9.19047ZM1.80859 9.19109L1.80831 8.99109L1.60859 8.99137V9.19109H1.80859ZM1.80859 15.2579H1.60859V15.4579H1.80859V15.2579ZM4.66795 15.2579V15.4579H4.86789L4.86795 15.258L4.66795 15.2579ZM4.66818 14.3637L4.46818 14.3637L4.46818 14.3637L4.66818 14.3637ZM4.65707 9.31379L4.85707 9.31233L4.85679 9.27438L4.84263 9.23917L4.65707 9.31379ZM4.65174 9.30231L4.47399 9.394L4.47399 9.394L4.65174 9.30231ZM4.66829 14.0446C4.66826 14.151 4.66822 14.2575 4.66818 14.364L5.06818 14.3642C5.06822 14.2576 5.06826 14.1511 5.06829 14.0448L4.66829 14.0446ZM4.66829 14.0446C4.66826 14.151 4.66822 14.2574 4.66818 14.364L5.06818 14.3641C5.06822 14.2576 5.06826 14.1511 5.06829 14.0448L4.66829 14.0446ZM4.66818 14.3641V14.3641H5.06818V14.3641H4.66818ZM4.44807 9.3619C4.44702 9.36109 4.44788 9.36168 4.45029 9.36401C4.45256 9.36621 4.45565 9.36942 4.45922 9.3736L4.76333 9.11376C4.74062 9.08718 4.71668 9.0641 4.69383 9.04631L4.44807 9.3619ZM2.25223 9.39047C3.03256 9.38916 3.80001 9.38789 4.56673 9.40406L4.57517 9.00415C3.80313 8.98786 3.03112 8.98916 2.25156 8.99047L2.25223 9.39047ZM2.25219 9.39047L2.25219 9.39047L2.25161 8.99047L2.25161 8.99047L2.25219 9.39047ZM1.80887 9.39109L2.25218 9.39047L2.25162 8.99047L1.80831 8.99109L1.80887 9.39109ZM2.00859 15.2579V9.19109H1.60859V15.2579H2.00859ZM4.66795 15.0579H1.80859V15.4579H4.66795V15.0579ZM4.46818 14.3637L4.46795 15.2578L4.86795 15.258L4.86818 14.3638L4.46818 14.3637ZM4.45708 9.31526C4.46934 10.9888 4.46877 12.6624 4.46818 14.3637L4.86818 14.3638C4.86877 12.6628 4.86934 10.9876 4.85707 9.31233L4.45708 9.31526ZM4.47399 9.394C4.47385 9.39372 4.47291 9.39188 4.47151 9.38842L4.84263 9.23917C4.83907 9.23033 4.83473 9.2208 4.82948 9.21063L4.47399 9.394ZM4.45922 9.3736C4.46339 9.37848 4.46699 9.38325 4.4698 9.38736C4.47274 9.39165 4.47401 9.39403 4.47399 9.394L4.82948 9.21063C4.81266 9.17802 4.78939 9.14426 4.76333 9.11376L4.45922 9.3736Z" fill="#E63946" mask="url(#path-2-inside-1_147_19480)"/>
</svg>
