<svg width="18" height="18" viewBox="0 0 18 18" fill="none" xmlns="http://www.w3.org/2000/svg">
<path d="M14.355 9.705C14.385 9.48 14.4 9.2475 14.4 9C14.4 8.76 14.385 8.52 14.3475 8.295L15.87 7.11C16.005 7.005 16.0425 6.8025 15.96 6.6525L14.52 4.1625C14.43 3.9975 14.2425 3.945 14.0775 3.9975L12.285 4.7175C11.91 4.4325 11.5125 4.1925 11.07 4.0125L10.8 2.1075C10.77 1.9275 10.62 1.8 10.44 1.8H7.55996C7.37996 1.8 7.23746 1.9275 7.20746 2.1075L6.93746 4.0125C6.49496 4.1925 6.08996 4.44 5.72246 4.7175L3.92996 3.9975C3.76496 3.9375 3.57746 3.9975 3.48746 4.1625L2.05496 6.6525C1.96496 6.81 1.99496 7.005 2.14496 7.11L3.66746 8.295C3.62996 8.52 3.59996 8.7675 3.59996 9C3.59996 9.2325 3.61496 9.48 3.65246 9.705L2.12996 10.89C1.99496 10.995 1.95746 11.1975 2.03996 11.3475L3.47996 13.8375C3.56996 14.0025 3.75746 14.055 3.92246 14.0025L5.71496 13.2825C6.08996 13.5675 6.48746 13.8075 6.92996 13.9875L7.19996 15.8925C7.23746 16.0725 7.37996 16.2 7.55996 16.2H10.44C10.62 16.2 10.77 16.0725 10.7925 15.8925L11.0625 13.9875C11.505 13.8075 11.91 13.5675 12.2775 13.2825L14.07 14.0025C14.235 14.0625 14.4225 14.0025 14.5125 13.8375L15.9525 11.3475C16.0425 11.1825 16.005 10.995 15.8625 10.89L14.355 9.705ZM8.99996 11.7C7.51496 11.7 6.29996 10.485 6.29996 9C6.29996 7.515 7.51496 6.3 8.99996 6.3C10.485 6.3 11.7 7.515 11.7 9C11.7 10.485 10.485 11.7 8.99996 11.7Z" fill="#E63946"/>
</svg>
