<svg width="15" height="14" viewBox="0 0 15 14" fill="none" xmlns="http://www.w3.org/2000/svg">
<path d="M0.226552 6.51217C1.76109 5.5596 3.47405 4.76457 5.07456 3.96548C7.82806 2.65664 10.5925 1.37048 13.3848 0.173073C13.9281 -0.0309523 14.9043 -0.230478 15 0.67685C14.9476 1.96116 14.732 3.23796 14.5841 4.51475C14.2087 7.32254 13.7749 10.1207 13.3518 12.9192C13.206 13.8514 12.1698 14.334 11.5068 13.7374C9.91339 12.5245 8.30774 11.3234 6.73469 10.0824C6.2194 9.4923 6.69722 8.64494 7.15744 8.22358C8.46981 6.76606 9.8616 5.52773 11.1054 3.99489C11.4409 3.08183 10.4496 3.85133 10.1226 4.0871C8.32596 5.48236 6.57328 6.96281 4.67906 8.18906C3.71149 8.7893 2.58377 8.27634 1.61664 7.94139C0.749477 7.5368 -0.521228 7.12917 0.226465 6.51223L0.226552 6.51217Z" fill="#E63946"/>
</svg>
