<svg width="21" height="20" viewBox="0 0 21 20" fill="none" xmlns="http://www.w3.org/2000/svg">
<path d="M0.317173 9.3031C2.46552 7.94228 4.86367 6.80653 7.10439 5.66498C10.9593 3.7952 14.8295 1.95782 18.7388 0.247248C19.4994 -0.0442175 20.866 -0.329255 21 0.966929C20.9266 2.80166 20.6248 4.62565 20.4177 6.44964C19.8922 10.4608 19.2848 14.4582 18.6925 18.4561C18.4884 19.7877 17.0377 20.4771 16.1095 19.6249C13.8788 17.8922 11.6308 16.1763 9.42857 14.4034C8.70716 13.5604 9.37611 12.3499 10.0204 11.748C11.8577 9.6658 13.8062 7.89676 15.5475 5.70698C16.0172 4.40261 14.6294 5.5019 14.1717 5.83871C11.6563 7.83195 9.2026 9.94687 6.55068 11.6987C5.19608 12.5561 3.61728 11.8233 2.26329 11.3448C1.04927 10.7669 -0.729719 10.1845 0.31705 9.30318L0.317173 9.3031Z" fill="white"/>
</svg>
