<svg width="24" height="23" viewBox="0 0 24 23" fill="none" xmlns="http://www.w3.org/2000/svg">
<path d="M22.6943 15.385L20.6926 13.5976C20.7417 13.4924 20.7908 13.388 20.8409 13.2828C21.2676 13.4402 21.7426 13.5231 22.1147 13.7708C22.6506 14.1313 23.1283 14.5923 23.5969 15.0469C23.7789 15.2238 23.8699 15.4986 24 15.7296C23.7734 15.8581 23.5605 16.0546 23.3185 16.1021C20.2995 16.7178 17.276 17.3129 14.2542 17.9118C13.196 18.1214 12.1242 18.2741 11.0833 18.5508C10.47 18.7138 10.1206 18.5331 9.74577 18.0655C8.02609 15.9233 6.1863 13.8696 4.5749 11.6445C3.66501 10.3871 2.6878 10.2688 1.34663 10.7131C1.42405 10.8713 1.51318 11.0233 1.61323 11.1676C4.4551 14.6529 7.30394 18.1329 10.1598 21.6076C10.3618 21.8526 10.7785 22.1227 11.0405 22.0733C14.8539 21.358 18.6581 20.5905 22.6661 19.7951L20.658 17.9426C20.9546 17.8597 21.2549 17.679 21.3632 17.7619C22.2585 18.4446 23.1183 19.1767 23.9882 19.8929C23.7507 20.1081 23.5405 20.4601 23.2703 20.5179C21.0101 21.0013 18.7391 21.4297 16.4716 21.8768C14.6883 22.2288 12.9003 22.5558 11.1261 22.9516C10.4955 23.0922 10.117 22.9292 9.71028 22.4254C6.64761 18.6355 3.55037 14.8746 0.480421 11.0912C0.263869 10.8249 0.17561 10.4514 0.0254794 10.1272C0.363956 10.0229 0.696062 9.88508 1.04182 9.82174C1.57501 9.7286 2.11639 9.6811 2.83338 9.59262C1.93714 8.49451 1.14281 7.54355 0.376693 6.56931C0.194716 6.34298 0.128295 6.02911 0.0127397 5.75528C0.285705 5.64817 0.54411 5.49356 0.824354 5.44419C1.42124 5.33988 2.02813 5.28865 2.83429 5.19085C1.95625 4.1123 1.17011 3.16414 0.409448 2.19456C0.227471 1.96451 0.136483 1.6618 0 1.39263C0.291163 1.26596 0.574142 1.05733 0.875313 1.02007C4.11996 0.657762 7.36642 0.303829 10.6174 0.00298848C11.0647 -0.0227297 11.5059 0.11822 11.8594 0.399763C15.7719 3.76955 19.6641 7.16386 23.536 10.5827C23.7443 10.769 23.8462 11.0773 23.9982 11.3278C23.7389 11.4563 23.4923 11.6491 23.2193 11.7004C19.1731 12.5209 15.1214 13.3126 11.0769 14.1443C10.4791 14.2673 10.117 14.1211 9.73575 13.6442C8.03791 11.5308 6.21814 9.50134 4.61857 7.30418C3.70141 6.04121 2.71782 5.82048 1.29295 6.33833C1.54771 6.66525 1.78064 6.9782 2.02722 7.2809C4.73413 10.5995 7.43466 13.9143 10.1652 17.2123C10.3772 17.4676 10.8385 17.7153 11.1288 17.6613C14.9094 16.9478 18.6836 16.1878 22.6943 15.385ZM22.5678 10.9934C22.4423 10.8072 22.4041 10.714 22.3386 10.66C18.7172 7.48674 15.0995 4.30789 11.4554 1.15978C11.1952 0.935318 10.7275 0.850561 10.3636 0.880365C8.21898 1.06664 6.07802 1.30136 3.93707 1.53234C3.07814 1.62548 2.22194 1.73724 1.29022 1.84994C1.35595 1.98152 1.42917 2.10902 1.5095 2.23181C4.40657 5.78508 7.31728 9.32624 10.1907 12.8991C10.5728 13.375 10.9541 13.3126 11.4081 13.2223C13.7623 12.7559 16.1159 12.2881 18.4688 11.8187C19.8164 11.5504 21.1612 11.2775 22.5678 10.9934Z" fill="white" stroke="white" stroke-width="0.2"/>
</svg>
