<svg width="18" height="17" viewBox="0 0 18 17" fill="none" xmlns="http://www.w3.org/2000/svg">
<path d="M17.0207 11.3715L15.5194 10.0504C15.5563 9.97262 15.5931 9.89551 15.6307 9.81772C15.9507 9.93407 16.3069 9.99533 16.586 10.1785C16.988 10.4449 17.3462 10.7856 17.6977 11.1216C17.8342 11.2524 17.9024 11.4555 18 11.6262C17.8301 11.7212 17.6704 11.8665 17.4889 11.9016C15.2246 12.3566 12.957 12.7965 10.6907 13.2392C9.89703 13.3941 9.09315 13.507 8.31247 13.7114C7.85252 13.8319 7.59048 13.6984 7.30933 13.3528C6.01957 11.7694 4.63973 10.2514 3.43117 8.60679C2.74876 7.67742 2.01585 7.58999 1.00997 7.91837C1.06804 8.03533 1.13488 8.14764 1.20992 8.25432C3.34132 10.8304 5.47796 13.4026 7.61982 15.9708C7.77132 16.1519 8.08386 16.3515 8.2804 16.315C11.1404 15.7863 13.9936 15.2191 16.9996 14.6312L15.4935 13.2619C15.716 13.2006 15.9412 13.0671 16.0224 13.1283C16.6939 13.633 17.3387 14.1741 17.9911 14.7035C17.813 14.8625 17.6554 15.1227 17.4527 15.1654C15.7576 15.5227 14.0543 15.8393 12.3537 16.1698C11.0162 16.43 9.67525 16.6716 8.34454 16.9642C7.87163 17.0682 7.58775 16.9477 7.28271 16.5753C4.98571 13.7741 2.66278 10.9942 0.360316 8.19787C0.197902 8.00098 0.131708 7.72492 0.0191096 7.48535C0.272967 7.40825 0.522047 7.30636 0.781363 7.25955C1.18126 7.19071 1.58729 7.1556 2.12503 7.0902C1.45286 6.27855 0.857111 5.57567 0.28252 4.85558C0.146037 4.68829 0.0962212 4.4563 0.00955478 4.2539C0.214279 4.17473 0.408083 4.06046 0.618266 4.02397C1.06593 3.94687 1.5211 3.909 2.12572 3.83672C1.46719 3.03952 0.877583 2.33871 0.307086 1.62207C0.170603 1.45203 0.102362 1.22829 0 1.02934C0.218372 0.935711 0.430606 0.781505 0.656485 0.753968C3.08997 0.486172 5.52481 0.224569 7.96307 0.00220888C8.2985 -0.0168002 8.6294 0.0873799 8.89457 0.295477C11.8289 2.78619 14.7481 5.29502 17.652 7.82199C17.8082 7.95967 17.8847 8.18754 17.9986 8.37273C17.8041 8.46773 17.6192 8.61023 17.4145 8.64809C14.3798 9.25459 11.341 9.83975 8.3077 10.4545C7.85935 10.5454 7.58775 10.4373 7.30182 10.0848C6.02843 8.5228 4.66361 7.02273 3.46393 5.39875C2.77606 4.46525 2.03837 4.30209 0.96971 4.68485C1.16079 4.92649 1.33548 5.1578 1.52042 5.38153C3.5506 7.83438 5.576 10.2845 7.62392 12.7222C7.78292 12.9108 8.1289 13.0939 8.34659 13.054C11.182 12.5267 14.0127 11.9649 17.0207 11.3715ZM16.9259 8.12558C16.8317 7.9879 16.803 7.91906 16.7539 7.87913C14.0379 5.53368 11.3246 3.1841 8.59158 0.857231C8.39641 0.691322 8.04565 0.628675 7.77268 0.650705C6.16424 0.788389 4.55852 0.961871 2.9528 1.1326C2.3086 1.20144 1.66646 1.28405 0.967665 1.36735C1.01696 1.4646 1.07188 1.55884 1.13212 1.6496C3.30493 4.27593 5.48796 6.89331 7.64302 9.53409C7.92964 9.88588 8.21557 9.83975 8.55609 9.77297C10.3217 9.4283 12.0869 9.08249 13.8516 8.73553C14.8623 8.53726 15.8709 8.33555 16.9259 8.12558Z" fill="#E63946" stroke="#E63946" stroke-width="0.2"/>
</svg>
