<svg width="28" height="26" viewBox="0 0 28 26" fill="none" xmlns="http://www.w3.org/2000/svg">
<path d="M28 14.9511C27.4313 17.8426 26.9343 20.5106 26.3451 23.1622C26.2764 23.4685 25.7303 23.8365 25.3316 23.9147C22.525 24.4663 19.708 24.9797 16.8788 25.4295C16.4351 25.4995 15.7516 25.3168 15.4513 25.0287C10.4241 20.1914 5.42349 15.3325 0.44953 10.4521C-0.450169 9.57334 0.0550148 8.41927 1.48039 8.11485C2.79305 7.83496 4.12211 7.61506 5.44501 7.37152C6.86834 7.10981 7.2772 6.72997 7.53338 5.43142C7.74857 4.34096 7.87256 3.22778 8.22609 2.17458C8.41156 1.62118 8.90035 1.05232 9.43217 0.709737C10.1034 0.279007 10.6301 0.846952 11.123 1.23861C16.4904 5.50714 21.8575 9.77598 27.2243 14.0451C27.5768 14.3268 27.8104 14.7248 28 14.9511ZM15.5364 23.9119C15.7834 22.4907 16.7302 21.9682 17.9803 21.741C19.2008 21.5184 20.412 21.2385 21.6437 21.0777C22.5577 20.9586 22.9758 20.5461 23.0957 19.7746C23.2412 18.8658 23.4339 17.9571 23.6081 17.0484C23.852 15.7644 24.2045 14.5513 26.258 14.305C25.7764 13.9542 25.5048 13.7716 25.2507 13.5699C20.371 9.69268 15.4927 5.8155 10.6157 1.93832C9.70168 1.21135 9.33995 1.3104 9.07865 2.41358C8.80608 3.58673 8.58167 4.76806 8.35418 5.94938C8.12259 7.15434 7.32946 7.85768 5.99016 8.09849C4.63344 8.34657 3.26852 8.56739 1.92204 8.85727C0.794858 9.09899 0.687261 9.47792 1.4394 10.2094C3.93766 12.6412 6.43625 15.072 8.93519 17.5019C11.0809 19.5828 13.2257 21.6656 15.5364 23.9119ZM16.5335 24.6898L22.7145 23.5821C25.4259 23.0968 25.4249 23.0968 25.9393 20.6342C25.9588 20.5433 25.9905 20.4525 26.008 20.3616C26.343 18.6196 26.6771 16.8776 27.0152 15.1119C25.3286 15.151 24.892 15.4609 24.6113 16.7622C24.3766 17.8481 24.1727 18.9431 23.9524 20.0272C23.7126 21.214 23.3099 21.5874 21.9696 21.8446C20.6497 22.0963 19.3155 22.299 18.007 22.5898C16.6984 22.8805 16.391 23.3394 16.5335 24.6898Z" fill="white" stroke="white" stroke-width="0.2"/>
<path d="M9.74835 8.33334C9.98947 8.5035 10.2121 8.63622 10.403 8.79617C13.5693 11.466 16.7281 14.1415 19.8794 16.8227C20.1041 17.015 20.1124 17.3808 20.2221 17.6667C19.903 17.5731 19.4947 17.5535 19.2792 17.374C16.0732 14.6974 12.8846 12.0057 9.71346 9.299C9.50825 9.12118 9.42309 8.8302 9.33382 8.57922C9.31946 8.53838 9.57905 8.43118 9.74835 8.33334Z" fill="white" stroke="white" stroke-width="0.2"/>
</svg>
