<svg width="18" height="18" viewBox="0 0 18 18" fill="none" xmlns="http://www.w3.org/2000/svg">
<path d="M18 10.2543C17.6344 12.1131 17.3149 13.8283 16.9361 15.5329C16.892 15.7297 16.5409 15.9663 16.2846 16.0166C14.4803 16.3712 12.6694 16.7012 10.8506 16.9904C10.5654 17.0354 10.126 16.9179 9.93301 16.7328C6.70121 13.623 3.48653 10.4994 0.288984 7.36204C-0.289394 6.79714 0.0353667 6.05524 0.951681 5.85954C1.79553 5.67962 2.64993 5.53825 3.50037 5.38169C4.41536 5.21345 4.6782 4.96926 4.84289 4.13448C4.98122 3.43347 5.06093 2.71786 5.2882 2.0408C5.40743 1.68504 5.72165 1.31935 6.06354 1.09912C6.49502 0.822217 6.83361 1.18733 7.15047 1.4391C10.601 4.18316 14.0513 6.92741 17.5013 9.67186C17.7279 9.85296 17.8781 10.1088 18 10.2543ZM9.98769 16.0148C10.1464 15.1012 10.7551 14.7653 11.5588 14.6192C12.3434 14.4761 13.122 14.2962 13.9138 14.1928C14.5014 14.1163 14.7702 13.851 14.8472 13.3551C14.9408 12.7709 15.0646 12.1867 15.1766 11.6026C15.3334 10.7771 15.56 9.99725 16.8801 9.83893C16.5705 9.61344 16.396 9.49603 16.2326 9.36634C13.0956 6.87387 9.95958 4.38139 6.82439 1.88892C6.23679 1.42158 6.00426 1.48525 5.83628 2.19444C5.66105 2.94861 5.51679 3.70803 5.37054 4.46746C5.22167 5.24207 4.7118 5.69422 3.85082 5.84903C2.97864 6.00851 2.10119 6.15046 1.2356 6.33682C0.51098 6.49221 0.441811 6.7358 0.92533 7.20606C2.53135 8.76931 4.13759 10.332 5.74405 11.8941C7.12346 13.2318 8.50222 14.5707 9.98769 16.0148ZM10.6286 16.5149L14.6022 15.8028C16.3452 15.4908 16.3446 15.4908 16.6753 13.9077C16.6878 13.8493 16.7082 13.7909 16.7194 13.7325C16.9348 12.6126 17.1496 11.4927 17.3669 10.3577C16.2827 10.3828 16.002 10.582 15.8215 11.4185C15.6707 12.1166 15.5396 12.8206 15.398 13.5175C15.2438 14.2804 14.9849 14.5205 14.1233 14.6858C13.2748 14.8476 12.4171 14.9779 11.5759 15.1648C10.7347 15.3518 10.5371 15.6468 10.6286 16.5149Z" fill="#2C2C2E" stroke="#2C2C2E" stroke-width="0.2"/>
<path d="M6.26685 6C6.42185 6.10939 6.56498 6.19471 6.68767 6.29754C8.72318 8.01385 10.7539 9.73382 12.7797 11.4574C12.9241 11.581 12.9294 11.8162 13 12C12.7949 11.9398 12.5323 11.9273 12.3938 11.8119C10.3328 10.0912 8.28301 8.3608 6.24442 6.62078C6.1125 6.50647 6.05775 6.31942 6.00037 6.15807C5.99113 6.13181 6.15801 6.0629 6.26685 6Z" fill="#2C2C2E" stroke="#2C2C2E" stroke-width="0.2"/>
</svg>
