<svg width="147" height="40" viewBox="0 0 147 40" fill="none" xmlns="http://www.w3.org/2000/svg">
<g opacity="0.9">
<path d="M51.5015 6.44614V19.1535H61.9661V16.9582H54.4179V13.8341H61.9661V11.5966H54.4179V8.68365H61.9661V6.44614H51.5015Z" fill="black"/>
<path d="M76.1527 6.42313L76.1117 19.1305L78.8994 19.1398L78.9404 6.43246L76.1527 6.42313Z" fill="black"/>
<path d="M37.8632 6.44614L41.1655 16.3672L44.5537 6.44614H48.6709V19.1535H46.0119V9.61243L42.5379 19.1535H39.6645L36.4907 9.61243V19.1535H33.7888V6.44614H37.8632Z" fill="black"/>
<path d="M67.6272 8.72586H63.4242V6.44614H74.7037V8.72586H70.372V19.1535H67.6272V8.72586Z" fill="black"/>
<path d="M109.786 6.44614V19.1535H120.251V16.9582H112.66V13.8341H120.251V11.5966H112.66V8.64143H120.251V6.44614H109.786Z" fill="black"/>
<path d="M135.39 6.44614V8.68365H139.55V19.1535H142.338V8.68365H146.67V6.44614H135.39Z" fill="black"/>
<path d="M90.7009 15.5651L85.3399 6.44614H81.8231V19.1535H84.6537L84.568 9.52799L90.1863 19.1535H93.36V6.44614H90.5723L90.7009 15.5651Z" fill="black"/>
<path d="M101.594 15.9028L97.6916 6.44614H94.5608L100.265 19.1535H103.138L108.585 6.44614H105.669L101.594 15.9028Z" fill="black"/>
<path d="M130.286 11.7656H126.641C125.483 11.7656 124.925 11.3012 124.925 10.3724C124.925 9.23257 125.569 8.68375 127.027 8.68375H133.803V6.40402H126.598C125.011 6.40402 123.81 6.69954 123.124 7.3328C122.352 7.96606 122.009 8.93705 122.009 10.288C122.009 12.821 123.339 13.9609 126.384 13.9609H129.643C131.058 13.9609 131.573 14.3409 131.573 15.4385C131.573 16.4939 131.015 16.8739 129.429 16.8739H122.524V19.1536H129.857C133.031 19.1536 134.446 17.9715 134.446 15.3118C134.446 14.0031 134.146 13.1166 133.503 12.5255C132.86 12.0611 131.787 11.7656 130.286 11.7656Z" fill="black"/>
<path d="M20.708 1.84469C20.708 1.84469 18.9925 1.127 18.7781 1.04256C18.5207 0.95813 18.3063 0.915913 18.049 1.00035C17.7916 1.04256 17.6201 1.21143 17.4914 1.25365C17.4057 1.33808 13.6744 4.92655 13.6744 4.92655C13.6744 4.92655 10.0289 1.3803 9.90027 1.25365C9.77161 1.127 9.64295 1.00035 9.34273 0.95813C9.04252 0.915913 8.78518 0.95813 8.61363 1.00035C8.44208 1.08478 6.85523 1.71804 6.68368 1.80247C6.46924 1.88691 6.2548 2.05578 6.12614 2.26686C5.99748 2.43573 5.95459 2.64682 5.95459 2.8579V7.83953L9.38563 9.73931V5.43315L10.9725 6.95297C11.1011 7.07962 11.2298 7.16406 11.3585 7.20628C11.4871 7.24849 11.5729 7.29071 11.7445 7.29071H15.6044C15.733 7.29071 15.8617 7.24849 15.9904 7.20628C16.1619 7.16406 16.2477 7.07962 16.4192 6.95297L17.9632 5.43315V9.78152L21.3942 7.88175V2.90012C21.48 2.39351 21.1369 2.01356 20.708 1.84469Z" fill="#EC2227"/>
<path d="M0.293402 12.6102C0.293402 12.6102 0.550718 14.4255 0.550718 14.6366C0.593606 14.8899 0.679387 15.101 0.850938 15.3121C1.02249 15.5232 1.23693 15.5654 1.3656 15.6076C1.49426 15.6498 6.55501 16.9585 6.55501 16.9585C6.55501 16.9585 5.22549 21.8135 5.18261 21.9402C5.13972 22.109 5.09683 22.2357 5.18261 22.5734C5.26838 22.869 5.43993 23.0378 5.56859 23.1645C5.69726 23.2911 7.06968 24.3043 7.24123 24.431C7.45567 24.5576 7.67009 24.6843 7.92742 24.6843C8.14186 24.6843 8.35631 24.6421 8.52786 24.5154C8.31342 24.6421 12.9882 22.0246 12.9882 22.0246V18.1828L9.0854 20.3781L9.68581 18.2673C9.7287 18.0984 9.72871 17.9718 9.72871 17.8029C9.68583 17.6762 9.68583 17.5496 9.60005 17.4229C9.51428 17.2541 7.6701 14.1722 7.6701 14.1722C7.58433 14.0456 7.49854 13.9611 7.41276 13.8767C7.2841 13.7923 7.15545 13.7078 6.94101 13.6234C6.72657 13.5812 4.79662 13.0746 4.79662 13.0746L8.6994 10.8793L5.26837 8.97949C5.26837 8.97949 1.27981 11.217 0.808047 11.4703C0.464945 11.7236 0.250514 12.1458 0.293402 12.6102Z" fill="#EC2227"/>
<path d="M20.1076 24.3887C20.1076 24.3887 21.5658 23.291 21.7802 23.1221C21.9947 22.9533 22.0804 22.7844 22.2091 22.5311C22.2949 22.2778 22.252 22.0667 22.2091 21.9401C22.1662 21.8134 20.8367 16.9162 20.8367 16.9162C20.8367 16.9162 25.8546 15.6075 25.9832 15.6075C26.1548 15.5653 26.2835 15.5231 26.5408 15.312C26.7981 15.0587 26.7981 14.8476 26.841 14.6787C26.8839 14.5098 27.0983 12.8634 27.0983 12.6523C27.1412 12.399 27.0983 12.1879 26.9697 11.9346C26.8839 11.7235 26.7123 11.6391 26.5408 11.5124C26.7552 11.6391 22.0804 9.02161 22.0804 9.02161L18.6494 10.9214L22.5522 13.1167L20.3649 13.6655C20.1934 13.7077 20.0647 13.7921 19.936 13.9188C19.8074 14.0032 19.7645 14.0877 19.6787 14.2143C19.593 14.3832 17.7488 17.465 17.7488 17.465C17.663 17.5917 17.6201 17.7183 17.6201 17.8028C17.5772 17.9717 17.5772 18.0983 17.663 18.3094C17.7059 18.5205 18.2205 20.378 18.2205 20.378L14.3177 18.1827V22.0245C14.3177 22.0245 18.3063 24.262 18.7781 24.4731C19.2498 24.7264 19.7645 24.642 20.1076 24.3887Z" fill="#EC2227"/>
<path d="M5.39697 36.5051C5.39697 34.5209 6.94092 33.0855 9.04243 33.0855C11.1439 33.0855 12.6879 34.5209 12.6879 36.5051C12.6879 38.4893 11.1439 39.9247 9.04243 39.9247C6.94092 39.9669 5.39697 38.4893 5.39697 36.5051ZM11.4442 36.5051C11.4442 35.1541 10.4148 34.1409 9.04243 34.1409C7.67002 34.1409 6.64072 35.1119 6.64072 36.5051C6.64072 37.856 7.67002 38.8692 9.04243 38.8692C10.4148 38.8692 11.4442 37.8982 11.4442 36.5051Z" fill="black"/>
<path d="M16.3333 34.225V36.2514H19.5928V37.3068H16.3333V39.8398H15.0896V33.1695H20.0217V34.225H16.3333Z" fill="black"/>
<path d="M23.4957 34.225V36.2514H26.7552V37.3068H23.4957V39.8398H22.252V33.1695H27.184V34.225H23.4957Z" fill="black"/>
<path d="M29.3712 33.1695H30.615V39.8398H29.3712V33.1695Z" fill="black"/>
<path d="M33.0596 36.5049C33.0596 34.5207 34.6035 33.0853 36.705 33.0853C37.8201 33.0853 38.7637 33.4652 39.3641 34.1829L38.5492 34.9428C38.0346 34.4362 37.4341 34.1407 36.7479 34.1407C35.3326 34.1407 34.3462 35.1117 34.3462 36.5049C34.3462 37.898 35.3755 38.869 36.7479 38.869C37.4341 38.869 38.0775 38.6157 38.5492 38.0669L39.3641 38.8268C38.7208 39.5445 37.7772 39.9244 36.6622 39.9244C34.6035 39.9667 33.0596 38.4891 33.0596 36.5049Z" fill="black"/>
<path d="M41.5515 33.1695H42.7952V39.8398H41.5515V33.1695Z" fill="black"/>
<path d="M50.0861 38.3202H46.698L46.0117 39.8822H44.7251L47.7702 33.2119H49.0139L52.0589 39.8822H50.7294L50.0861 38.3202ZM49.6572 37.3492L48.3706 34.4362L47.0839 37.3492H49.6572Z" fill="black"/>
<path d="M54.0317 33.1695H55.2755V38.7844H58.8352V39.8398H54.0317V33.1695Z" fill="black"/>
<path d="M64.7966 33.1695H67.7559C69.9432 33.1695 71.4442 34.5205 71.4442 36.5047C71.4442 38.4889 69.9432 39.8398 67.7559 39.8398H64.7966V33.1695ZM67.713 38.7844C69.2141 38.7844 70.2005 37.8979 70.2005 36.5047C70.2005 35.1115 69.2141 34.225 67.713 34.225H66.0833V38.7844H67.713Z" fill="black"/>
<path d="M73.8888 33.1695H75.1325V39.8398H73.8888V33.1695Z" fill="black"/>
<path d="M77.4485 39.1645L77.8774 38.1935C78.4349 38.6157 79.2927 38.9112 80.1075 38.9112C81.1797 38.9112 81.6086 38.5313 81.6086 38.0247C81.6086 36.5893 77.5772 37.5181 77.5772 35.0695C77.5772 33.9718 78.4349 33.0853 80.322 33.0853C81.1368 33.0853 81.9946 33.2964 82.595 33.6763L82.209 34.6473C81.6086 34.3096 80.9224 34.1407 80.322 34.1407C79.2927 34.1407 78.8638 34.5207 78.8638 35.0273C78.8638 36.4626 82.8952 35.5339 82.8952 37.9825C82.8952 39.0379 81.9946 39.9667 80.1504 39.9667C79.0782 39.9667 78.006 39.6289 77.4485 39.1645Z" fill="black"/>
<path d="M86.6694 34.225H84.4392V33.1695H90.1862V34.225H87.956V39.8398H86.7123V34.225H86.6694Z" fill="black"/>
<path d="M96.5765 39.8398L95.2041 37.8978C95.1183 37.8978 95.0325 37.8978 94.9468 37.8978H93.4028V39.8398H92.1591V33.1695H94.9468C96.7481 33.1695 97.8202 34.0561 97.8202 35.5337C97.8202 36.5469 97.3056 37.3068 96.3621 37.6445L97.906 39.8398H96.5765ZM94.861 34.225H93.4028V36.8846H94.861C95.9761 36.8846 96.5336 36.378 96.5336 35.5337C96.5336 34.7316 95.9761 34.225 94.861 34.225Z" fill="black"/>
<path d="M100.265 33.1695H101.509V39.8398H100.265V33.1695Z" fill="black"/>
<path d="M110.386 38.0245C110.386 39.1644 109.486 39.8398 107.727 39.8398H104.339V33.1695H107.513C109.143 33.1695 110 33.845 110 34.9004C110 35.5759 109.657 36.0825 109.143 36.378C109.872 36.6313 110.386 37.1802 110.386 38.0245ZM105.626 34.1405V35.9981H107.427C108.285 35.9981 108.8 35.7026 108.8 35.0693C108.8 34.436 108.285 34.1405 107.427 34.1405H105.626ZM109.1 37.8978C109.1 37.2224 108.585 36.9269 107.642 36.9269H105.626V38.8688H107.642C108.585 38.8688 109.1 38.5733 109.1 37.8978Z" fill="black"/>
<path d="M112.659 36.9269V33.1695H113.903V36.8846C113.903 38.2356 114.546 38.8266 115.619 38.8266C116.691 38.8266 117.334 38.2356 117.334 36.8846V33.1695H118.578V36.9269C118.578 38.8688 117.463 39.9243 115.619 39.9243C113.774 39.9665 112.659 38.9111 112.659 36.9269Z" fill="black"/>
<path d="M122.781 34.225H120.551V33.1695H126.298V34.225H124.068V39.8398H122.824V34.225H122.781Z" fill="black"/>
<path d="M127.67 36.5049C127.67 34.5207 129.214 33.0853 131.316 33.0853C133.417 33.0853 134.961 34.5207 134.961 36.5049C134.961 38.4891 133.417 39.9244 131.316 39.9244C129.214 39.9667 127.67 38.4891 127.67 36.5049ZM133.674 36.5049C133.674 35.1539 132.645 34.1407 131.273 34.1407C129.9 34.1407 128.871 35.1117 128.871 36.5049C128.871 37.8558 129.9 38.869 131.273 38.869C132.688 38.869 133.674 37.898 133.674 36.5049Z" fill="black"/>
<path d="M141.78 39.8398L140.408 37.8978C140.322 37.8978 140.236 37.8978 140.151 37.8978H138.607V39.8398H137.363V33.1695H140.151C141.952 33.1695 143.024 34.0561 143.024 35.5337C143.024 36.5469 142.509 37.3068 141.566 37.6445L143.11 39.8398H141.78ZM140.065 34.225H138.607V36.8846H140.065C141.18 36.8846 141.737 36.378 141.737 35.5337C141.737 34.7316 141.18 34.225 140.065 34.225Z" fill="black"/>
</g>
</svg>
