<svg width="182" height="41" viewBox="0 0 182 41" fill="none" xmlns="http://www.w3.org/2000/svg">
<path d="M44.722 8.93999H40.4987V19.4688H37.5148V8.93999H33.3374V6.49985H44.7679V8.93999H44.722Z" fill="#12100B"/>
<path d="M55.3263 7.04212C56.1526 7.35844 56.8412 7.94588 57.3003 8.66889C58.2184 10.2053 58.2184 12.1032 57.3003 13.6396C56.7953 14.3626 56.1067 14.95 55.3263 15.2663C54.3623 15.673 53.3524 15.8538 52.2966 15.8086H49.634V19.4236H46.6042V6.45468H52.2966C53.3524 6.45468 54.3623 6.68062 55.3263 7.04212ZM54.2246 12.8262C54.7296 12.4195 55.005 11.7869 54.9591 11.1542C55.005 10.5216 54.7296 9.88896 54.2246 9.48227C53.6278 9.07558 52.8933 8.84964 52.1129 8.89483H49.634V13.4136H52.1129C52.8933 13.504 53.6278 13.2781 54.2246 12.8262Z" fill="#12100B"/>
<path d="M68.2717 16.6671H62.1662L61.0186 19.4236H57.897L63.7729 6.45468H66.8027L72.6786 19.4236H69.4652L68.2717 16.6671ZM67.3535 14.4078L65.2419 9.43708L63.1302 14.4078H67.3535Z" fill="#12100B"/>
<path d="M86.4963 6.49985V19.4688H83.4665V14.1366H77.4529V19.4688H74.4231V6.49985H77.4529V11.6061H83.4665V6.49985H86.4963Z" fill="#12100B"/>
<path d="M92.3723 18.8362C91.3164 18.2939 90.4442 17.4805 89.8015 16.4412C88.5621 14.3174 88.5621 11.6513 89.8015 9.52747C90.3983 8.53334 91.3164 7.67477 92.3723 7.13251C93.5199 6.54507 94.7594 6.22875 96.0447 6.27394C97.1005 6.27394 98.1564 6.45469 99.1204 6.86139C99.9926 7.22289 100.819 7.81033 101.416 8.57853L99.4417 10.3409C98.6154 9.34672 97.4219 8.80447 96.1365 8.84965C95.3561 8.84965 94.6216 9.03041 93.979 9.39191C93.3363 9.75341 92.8313 10.2505 92.4641 10.8831C91.7296 12.2387 91.7296 13.8203 92.4641 15.176C92.8313 15.8086 93.3363 16.3057 93.979 16.6672C94.6216 17.0287 95.402 17.2094 96.1365 17.2094C97.4219 17.2094 98.6613 16.6672 99.4417 15.673L101.416 17.4354C100.773 18.2036 99.9926 18.791 99.0745 19.1525C98.1105 19.5592 97.0546 19.7399 95.9988 19.7399C94.7135 19.6948 93.474 19.3784 92.3723 18.8362Z" fill="#12100B"/>
<path d="M115.417 19.4688L115.371 11.7417L111.515 18.068H110.184L106.328 11.832V19.4688H103.481V6.49987H106.006L110.918 14.5433L115.784 6.45468H118.309L118.355 19.4236L115.417 19.4688Z" fill="#12100B"/>
<path d="M131.713 17.0286V19.4236H121.522V6.49985H131.438V8.89481H124.506V11.6965H130.612V14.0462H124.506V17.0286H131.713Z" fill="#12100B"/>
<path d="M144.246 8.93999H140.022V19.4688H136.993V8.93999H132.815V6.49985H144.246V8.93999Z" fill="#12100B"/>
<path d="M166.648 7.08732C167.704 7.67476 168.53 8.48814 169.127 9.48228C169.723 10.5216 170.045 11.6965 170.045 12.9166C170.045 14.1366 169.769 15.3115 169.127 16.3508C168.53 17.3902 167.658 18.2035 166.648 18.7458C165.546 19.3332 164.306 19.6496 163.067 19.6044C161.965 19.6044 160.864 19.3784 159.854 18.9266C158.89 18.4747 158.063 17.7969 157.421 16.9835C156.778 16.1701 156.365 15.176 156.227 14.1366H154.529V19.4236H151.499V6.49987H154.529V11.6061H156.319C156.686 9.57265 158.063 7.81032 159.991 6.95175C161.001 6.49987 162.057 6.27393 163.159 6.27393C164.352 6.18356 165.592 6.45469 166.648 7.08732ZM165.087 16.5768C165.684 16.2153 166.143 15.7182 166.464 15.1308C166.831 14.4529 167.015 13.7299 166.969 12.9617C166.969 12.1936 166.831 11.4705 166.464 10.7927C166.143 10.2053 165.638 9.66303 165.087 9.34671C164.49 8.98521 163.802 8.80446 163.113 8.80446C161.69 8.80446 160.404 9.57265 159.716 10.7927C159.349 11.4705 159.165 12.1936 159.211 12.9166C159.211 13.6848 159.349 14.4078 159.716 15.0856C160.037 15.673 160.496 16.1701 161.093 16.5316C162.333 17.2546 163.847 17.2546 165.087 16.5768Z" fill="#12100B"/>
<path d="M181.705 8.84964H175.462L175.508 19.3784H172.478V6.45468H181.705V8.84964Z" fill="#12100B"/>
<path d="M16.6931 16.9218C16.9972 16.5182 17.4154 16.1145 17.8335 15.8209C18.6698 15.1971 19.6581 14.7935 20.7225 14.6467C20.9885 14.61 21.2546 14.61 21.5207 14.61V0.555542H17.8715V5.61955C16.237 5.9865 14.7165 6.61033 13.272 7.41763L9.50874 3.85815L4.33903 8.92216L7.15196 11.6376L8.7865 10.0597L11.7135 12.922L8.52041 15.9677C9.01458 16.7383 9.35669 17.5823 9.58477 18.463H13.6521V22.4996H9.58477C9.35669 23.3803 8.97657 24.2243 8.52041 24.9949L11.3714 27.6737L8.40638 30.5359L7.11395 29.2883L4.30102 32.0037L9.54675 37.0677L13.272 33.4716C14.6785 34.3156 16.237 34.9394 17.8715 35.3064V40.3704H21.5587V26.3893C21.2926 26.3893 21.0266 26.3893 20.7605 26.3526C19.6961 26.2058 18.7078 25.8022 17.8715 25.1783C17.4534 24.8848 17.0352 24.4811 16.7311 24.0775C16.0849 23.2702 15.6668 22.3161 15.5147 21.2886C15.4767 21.0317 15.4767 20.7749 15.4767 20.518C15.4767 20.2611 15.4767 20.0043 15.5147 19.7474C15.6288 18.7199 16.0089 17.7658 16.6931 16.9218ZM4.30102 20.0776C4.22499 19.4905 3.99692 18.9401 3.61679 18.4997C3.42673 18.2796 3.19865 18.0594 2.97058 17.8759C2.47641 17.5089 1.94424 17.2888 1.33603 17.2154C1.18398 17.1787 1.03193 17.1787 0.879883 17.1787V23.8206C1.03193 23.8206 1.18398 23.8206 1.37405 23.7839C1.98225 23.7105 2.55244 23.4903 3.00859 23.1234C3.23666 22.9399 3.46474 22.7564 3.6548 22.4996C4.03493 22.0225 4.263 21.4721 4.33903 20.9216C4.37704 20.7749 4.37704 20.6281 4.37704 20.4446C4.33903 20.3345 4.33903 20.2244 4.30102 20.0776Z" fill="#EE383D"/>
<path d="M65.6552 39.719V34.6579L63.1304 38.8152H62.4877L59.9629 34.7031V39.6738H58.5857V32.1274H59.7792L62.8549 37.1432L65.8847 32.1274H67.0323V39.719H65.6552Z" fill="#1D1D1B"/>
<path d="M74.9741 38.5441V39.719H69.1899V32.1274H74.8364V33.3023H70.613V35.2905H74.3314V36.4654H70.613V38.5441H74.9741Z" fill="#1D1D1B"/>
<path d="M82.1811 33.3023H79.6104V39.719H78.1873V33.3023H75.6166V32.1274H82.1352V33.3023H82.1811Z" fill="#1D1D1B"/>
<path d="M88.1489 37.9566H84.2928L83.5124 39.719H82.0435L85.5323 32.1274H86.9554L90.4442 39.719H88.9293L88.1489 37.9566ZM87.644 36.8721L86.175 33.5282L84.706 36.8721H87.644Z" fill="#1D1D1B"/>
<path d="M98.2481 32.1274V39.719H96.8251V33.3023H93.7953L93.7494 35.2002C93.7035 36.2847 93.6117 37.1433 93.4739 37.7759C93.3362 38.4537 93.1067 38.9508 92.7854 39.2671C92.464 39.6286 92.0509 39.7642 91.5 39.7642C91.3164 39.7642 91.0409 39.719 90.7196 39.6738L90.8114 38.4537C90.9032 38.4989 90.995 38.4989 91.1328 38.4989C91.5918 38.4989 91.9132 38.2278 92.0968 37.7307C92.2804 37.1885 92.4181 36.3751 92.464 35.2454L92.5558 32.0822H98.2481V32.1274Z" fill="#1D1D1B"/>
<path d="M101.875 39.3123C101.232 38.996 100.727 38.4989 100.406 37.9114C100.038 37.324 99.8549 36.6462 99.8549 35.9232C99.8549 35.2002 100.038 34.5224 100.406 33.9349C100.773 33.3475 101.278 32.8504 101.875 32.5341C102.517 32.2178 103.206 32.037 103.986 32.037C104.767 32.037 105.501 32.2178 106.098 32.5341C106.741 32.8504 107.246 33.3475 107.567 33.9349C107.934 34.5224 108.118 35.2002 108.118 35.9232C108.118 36.6914 107.934 37.324 107.567 37.9566C107.2 38.5441 106.695 38.996 106.098 39.3575C105.455 39.6738 104.767 39.8545 103.986 39.8545C103.206 39.8545 102.517 39.6738 101.875 39.3123ZM105.409 38.2729C105.823 38.047 106.144 37.7307 106.373 37.324C106.603 36.9173 106.741 36.4654 106.741 35.9684C106.741 35.4713 106.603 35.0194 106.373 34.6127C106.144 34.206 105.823 33.8897 105.409 33.6638C104.996 33.4378 104.537 33.3023 104.032 33.3023C103.527 33.3023 103.068 33.4378 102.655 33.6638C102.242 33.8897 101.921 34.206 101.691 34.6127C101.462 35.0194 101.324 35.4713 101.324 35.9684C101.324 36.4654 101.462 36.9173 101.691 37.324C101.921 37.7307 102.242 38.047 102.655 38.2729C103.068 38.4989 103.527 38.6345 104.032 38.6345C104.537 38.6345 104.996 38.4989 105.409 38.2729Z" fill="#1D1D1B"/>
<path d="M116.61 32.1274V39.719H115.187V33.3023H111.194V39.719H109.771V32.1274H116.61Z" fill="#1D1D1B"/>
<path d="M123.68 32.4437C124.185 32.6696 124.552 32.9859 124.827 33.3926C125.103 33.7993 125.241 34.2964 125.241 34.8387C125.241 35.3809 125.103 35.878 124.827 36.2847C124.552 36.6914 124.185 37.0077 123.68 37.2336C123.175 37.4596 122.578 37.5499 121.935 37.5499H120.191V39.7641H118.768V32.1274H121.935C122.624 32.1274 123.221 32.2178 123.68 32.4437ZM123.313 35.9684C123.634 35.6972 123.818 35.3357 123.818 34.8387C123.818 34.3416 123.634 33.9801 123.313 33.709C122.991 33.4378 122.532 33.3023 121.89 33.3023H120.191V36.3299H121.89C122.532 36.3299 122.991 36.1943 123.313 35.9684Z" fill="#1D1D1B"/>
<path d="M128.133 39.3123C127.49 38.996 126.985 38.4989 126.664 37.9114C126.297 37.324 126.113 36.6462 126.113 35.9232C126.113 35.2002 126.297 34.5224 126.664 33.9349C127.031 33.3475 127.536 32.8504 128.133 32.5341C128.775 32.2178 129.464 32.037 130.244 32.037C131.025 32.037 131.759 32.2178 132.356 32.5341C132.999 32.8504 133.504 33.3475 133.825 33.9349C134.192 34.5224 134.376 35.2002 134.376 35.9232C134.376 36.6914 134.192 37.324 133.825 37.9566C133.458 38.5441 132.953 38.996 132.356 39.3575C131.713 39.6738 131.025 39.8545 130.244 39.8545C129.464 39.8545 128.775 39.6738 128.133 39.3123ZM131.668 38.2729C132.081 38.047 132.402 37.7307 132.632 37.324C132.861 36.9173 132.999 36.4654 132.999 35.9684C132.999 35.4713 132.861 35.0194 132.632 34.6127C132.402 34.206 132.081 33.8897 131.668 33.6638C131.254 33.4378 130.795 33.3023 130.29 33.3023C129.785 33.3023 129.326 33.4378 128.913 33.6638C128.5 33.8897 128.179 34.206 127.949 34.6127C127.72 35.0194 127.582 35.4713 127.582 35.9684C127.582 36.4654 127.72 36.9173 127.949 37.324C128.179 37.7307 128.5 38.047 128.913 38.2729C129.326 38.4989 129.785 38.6345 130.29 38.6345C130.795 38.6345 131.254 38.4989 131.668 38.2729Z" fill="#1D1D1B"/>
<path d="M138.875 36.5106H137.452V39.719H136.029V32.1274H137.452V35.2905H138.921L141.124 32.1274H142.639L140.022 35.8328L142.777 39.7641H141.17L138.875 36.5106Z" fill="#1D1D1B"/>
<path d="M148.285 37.9566H144.429L143.649 39.719H142.18L145.669 32.1274H147.092L150.581 39.719H149.066L148.285 37.9566ZM147.826 36.8721L146.357 33.5282L144.888 36.8721H147.826Z" fill="#1D1D1B"/>
<path d="M157.421 33.3023H154.85V39.719H153.427V33.3023H150.856V32.1274H157.375V33.3023H157.421Z" fill="#1D1D1B"/>
<path d="M49.6339 35.4261H33.2915V36.1943H49.6339V35.4261Z" fill="url(#paint0_radial_55_152)"/>
<path d="M181.751 35.4261H166.281V36.1943H181.751V35.4261Z" fill="url(#paint1_radial_55_152)"/>
<defs>
<radialGradient id="paint0_radial_55_152" cx="0" cy="0" r="1" gradientUnits="userSpaceOnUse" gradientTransform="translate(38.1905 35.6988) scale(5.80808 2.85864)">
<stop stop-color="#E62A3F"/>
<stop offset="1" stop-color="#D90D2A"/>
</radialGradient>
<radialGradient id="paint1_radial_55_152" cx="0" cy="0" r="1" gradientUnits="userSpaceOnUse" gradientTransform="translate(176.95 35.6605) scale(5.56424 1.30977)">
<stop stop-color="#E62A3F"/>
<stop offset="1" stop-color="#D90D2A"/>
</radialGradient>
</defs>
</svg>
