<svg width="144" height="34" viewBox="0 0 144 34" fill="none" xmlns="http://www.w3.org/2000/svg">
<path d="M34.6921 6.61609H31.3502V14.8584H28.9891V6.61609H25.6835V4.70584H34.7285V6.61609H34.6921Z" fill="white"/>
<path d="M43.0834 5.12955C43.7373 5.37718 44.2822 5.83705 44.6454 6.40305C45.3719 7.60579 45.3719 9.09154 44.6454 10.2943C44.2459 10.8603 43.701 11.3202 43.0834 11.5678C42.3206 11.8862 41.5215 12.0277 40.686 11.9923H38.5791V14.8223H36.1816V4.66968H40.686C41.5215 4.66968 42.3206 4.84655 43.0834 5.12955ZM42.2116 9.65754C42.6112 9.33916 42.8292 8.84391 42.7928 8.34867C42.8292 7.85342 42.6112 7.35817 42.2116 7.0398C41.7394 6.72142 41.1582 6.54455 40.5407 6.57992H38.5791V10.1174H40.5407C41.1582 10.1882 41.7394 10.0113 42.2116 9.65754Z" fill="white"/>
<path d="M53.3271 12.6644H48.4958L47.5877 14.8223H45.1176L49.7672 4.66968H52.1647L56.8143 14.8223H54.2715L53.3271 12.6644ZM52.6006 10.8957L50.9296 7.00442L49.2586 10.8957H52.6006Z" fill="white"/>
<path d="M67.7485 4.70584V14.8584H65.351V10.6842H60.5924V14.8584H58.1949V4.70584H60.5924V8.7032H65.351V4.70584H67.7485Z" fill="white"/>
<path d="M72.398 14.3632C71.5625 13.9387 70.8723 13.3019 70.3638 12.4883C69.383 10.8257 69.383 8.73858 70.3638 7.07596C70.836 6.29771 71.5625 5.62559 72.398 5.20109C73.3061 4.74122 74.2869 4.49359 75.304 4.52897C76.1395 4.52897 76.975 4.67047 77.7378 4.98884C78.428 5.27184 79.0818 5.73172 79.5541 6.33309L77.9921 7.71271C77.3382 6.93446 76.3938 6.50996 75.3767 6.54534C74.7591 6.54534 74.1779 6.68684 73.6694 6.96984C73.1608 7.25284 72.7612 7.64196 72.4706 8.13721C71.8894 9.19846 71.8894 10.4366 72.4706 11.4978C72.7612 11.9931 73.1608 12.3822 73.6694 12.6652C74.1779 12.9482 74.7954 13.0897 75.3767 13.0897C76.3938 13.0897 77.3745 12.6652 77.9921 11.887L79.5541 13.2666C79.0455 13.8679 78.428 14.3278 77.7015 14.6108C76.9386 14.9292 76.1032 15.0707 75.2677 15.0707C74.2506 15.0353 73.2698 14.7877 72.398 14.3632Z" fill="white"/>
<path d="M90.6334 14.8576L90.5971 8.80854L87.5458 13.761H86.4923L83.441 8.87929V14.8576H81.1888V4.70505H83.1867L87.0735 11.0018L90.924 4.66968H92.9219L92.9582 14.8223L90.6334 14.8576Z" fill="white"/>
<path d="M103.529 12.9482V14.8231H95.4646V4.70584H103.311V6.58071H97.8257V8.77396H102.657V10.6134H97.8257V12.9482H103.529Z" fill="white"/>
<path d="M113.446 6.61609H110.104V14.8584H107.706V6.61609H104.401V4.70584H113.446V6.61609Z" fill="white"/>
<path d="M131.172 5.16561C132.008 5.62548 132.662 6.26223 133.134 7.04048C133.606 7.8541 133.86 8.77385 133.86 9.72897C133.86 10.6841 133.642 11.6038 133.134 12.4175C132.662 13.2311 131.971 13.8678 131.172 14.2923C130.3 14.7522 129.32 14.9998 128.339 14.9645C127.467 14.9645 126.595 14.7876 125.796 14.4338C125.033 14.0801 124.379 13.5495 123.871 12.9127C123.362 12.276 123.035 11.4977 122.926 10.6841H121.582V14.823H119.185V4.70573H121.582V8.7031H122.999C123.29 7.11123 124.379 5.73161 125.905 5.05948C126.704 4.70573 127.54 4.52886 128.412 4.52886C129.356 4.45811 130.337 4.67036 131.172 5.16561ZM129.937 12.5943C130.409 12.3113 130.773 11.9222 131.027 11.4623C131.318 10.9317 131.463 10.3657 131.427 9.76435C131.427 9.16297 131.318 8.59697 131.027 8.06635C130.773 7.60648 130.373 7.18198 129.937 6.93435C129.465 6.65135 128.92 6.50985 128.375 6.50985C127.249 6.50985 126.232 7.11123 125.687 8.06635C125.397 8.59697 125.251 9.16297 125.288 9.72897C125.288 10.3303 125.397 10.8963 125.687 11.427C125.941 11.8868 126.305 12.276 126.777 12.559C127.758 13.125 128.956 13.125 129.937 12.5943Z" fill="white"/>
<path d="M143.087 6.54455H138.147L138.183 14.7869H135.786V4.66968H143.087V6.54455Z" fill="white"/>
<path d="M12.513 12.8645C12.7537 12.5485 13.0846 12.2325 13.4154 12.0027C14.0772 11.5143 14.8592 11.1984 15.7015 11.0834C15.912 11.0547 16.1226 11.0547 16.3331 11.0547V0.0523376H13.4455V4.01664C12.1521 4.30391 10.9489 4.79227 9.80589 5.42426L6.82803 2.63775L2.73723 6.60206L4.96311 8.72785L6.25652 7.49259L8.57264 9.73328L6.04597 12.1176C6.437 12.7209 6.70771 13.3816 6.88819 14.071H10.1067V17.231H6.88819C6.70771 17.9204 6.40692 18.5812 6.04597 19.1844L8.30192 21.2815L5.95573 23.5222L4.93303 22.5455L2.70715 24.6712L6.85811 28.6355L9.80589 25.8203C10.9188 26.481 12.1521 26.9694 13.4455 27.2567V31.221H16.3632V20.276C16.1527 20.276 15.9421 20.276 15.7315 20.2473C14.8893 20.1324 14.1073 19.8164 13.4455 19.3281C13.1146 19.0982 12.7838 18.7822 12.5431 18.4662C12.0318 17.8343 11.7009 17.0874 11.5806 16.283C11.5505 16.0819 11.5505 15.8808 11.5505 15.6797C11.5505 15.4787 11.5505 15.2776 11.5806 15.0765C11.6708 14.2721 11.9716 13.5252 12.513 12.8645ZM2.70715 15.335C2.64699 14.8754 2.46651 14.4445 2.16572 14.0998C2.01532 13.9274 1.83485 13.755 1.65437 13.6114C1.26334 13.3241 0.842224 13.1518 0.360953 13.0943C0.240635 13.0656 0.120318 13.0656 0 13.0656V18.2652C0.120318 18.2652 0.240635 18.2652 0.391033 18.2364C0.872304 18.179 1.3235 18.0066 1.68445 17.7193C1.86492 17.5757 2.0454 17.4321 2.1958 17.231C2.49659 16.8575 2.67707 16.4266 2.73723 15.9957C2.76731 15.8808 2.76731 15.7659 2.76731 15.6223C2.73723 15.5361 2.73723 15.4499 2.70715 15.335Z" fill="white"/>
<path d="M45.243 33.5299V28.8569L42.8866 32.6955H42.2868L39.9303 28.8986V33.4882H38.645V26.5204H39.759L42.6295 31.1517L45.4572 26.5204H46.5283V33.5299H45.243Z" fill="white"/>
<path d="M53.9406 32.4451V33.5299H48.5422V26.5204H53.8121V27.6052H49.8704V29.441H53.3408V30.5258H49.8704V32.4451H53.9406Z" fill="white"/>
<path d="M60.667 27.6052H58.2677V33.5299H56.9396V27.6052H54.5403V26.5204H60.6241V27.6052H60.667Z" fill="white"/>
<path d="M66.2368 31.9027H62.6379L61.9096 33.5299H60.5386L63.7947 26.5204H65.1229L68.379 33.5299H66.9652L66.2368 31.9027ZM65.7656 30.9014L64.3945 27.8138L63.0235 30.9014H65.7656Z" fill="white"/>
<path d="M75.6623 26.5201V33.5295H74.3341V27.6049H71.5064L71.4636 29.3572C71.4207 30.3586 71.335 31.1513 71.2065 31.7355C71.078 32.3613 70.8638 32.8203 70.5638 33.1123C70.2639 33.4461 69.8783 33.5713 69.3642 33.5713C69.1928 33.5713 68.9358 33.5295 68.6359 33.4878L68.7216 32.3613C68.8072 32.403 68.8929 32.403 69.0215 32.403C69.4499 32.403 69.7498 32.1527 69.9212 31.6937C70.0926 31.1931 70.2211 30.442 70.2639 29.399L70.3496 26.4783H75.6623V26.5201Z" fill="white"/>
<path d="M79.0473 33.1544C78.4474 32.8623 77.9761 32.4034 77.6762 31.861C77.3335 31.3186 77.1621 30.6927 77.1621 30.0252C77.1621 29.3576 77.3335 28.7318 77.6762 28.1894C78.019 27.647 78.4903 27.188 79.0473 26.8959C79.6471 26.6039 80.2897 26.437 81.0181 26.437C81.7464 26.437 82.4319 26.6039 82.9889 26.8959C83.5887 27.188 84.06 27.647 84.3599 28.1894C84.7027 28.7318 84.874 29.3576 84.874 30.0252C84.874 30.7345 84.7027 31.3186 84.3599 31.9027C84.0172 32.4451 83.5459 32.8623 82.9889 33.1961C82.3891 33.4882 81.7464 33.6551 81.0181 33.6551C80.2897 33.6551 79.6471 33.4882 79.0473 33.1544ZM82.3462 32.1948C82.7318 31.9862 83.0317 31.6941 83.246 31.3186C83.4602 30.9431 83.5887 30.5259 83.5887 30.0669C83.5887 29.6079 83.4602 29.1907 83.246 28.8152C83.0317 28.4397 82.7318 28.1476 82.3462 27.939C81.9607 27.7304 81.5322 27.6052 81.0609 27.6052C80.5896 27.6052 80.1612 27.7304 79.7756 27.939C79.39 28.1476 79.0901 28.4397 78.8759 28.8152C78.6617 29.1907 78.5331 29.6079 78.5331 30.0669C78.5331 30.5259 78.6617 30.9431 78.8759 31.3186C79.0901 31.6941 79.39 31.9862 79.7756 32.1948C80.1612 32.4034 80.5896 32.5286 81.0609 32.5286C81.5322 32.5286 81.9607 32.4034 82.3462 32.1948Z" fill="white"/>
<path d="M92.8001 26.5199V33.5294H91.472V27.6047H87.7445V33.5294H86.4164V26.5199H92.8001Z" fill="white"/>
<path d="M99.398 26.8119C99.8693 27.0205 100.212 27.3126 100.469 27.6881C100.726 28.0636 100.855 28.5226 100.855 29.0233C100.855 29.5239 100.726 29.9829 100.469 30.3584C100.212 30.7339 99.8693 31.026 99.398 31.2346C98.9267 31.4432 98.3698 31.5266 97.77 31.5266H96.1419V33.5711H94.8137V26.5199H97.77C98.4126 26.5199 98.9696 26.6033 99.398 26.8119ZM99.0553 30.0663C99.3552 29.816 99.5266 29.4822 99.5266 29.0233C99.5266 28.5643 99.3552 28.2305 99.0553 27.9802C98.7554 27.7298 98.3269 27.6047 97.7271 27.6047H96.1419V30.4001H97.7271C98.3269 30.4001 98.7554 30.275 99.0553 30.0663Z" fill="white"/>
<path d="M103.554 33.1544C102.954 32.8623 102.483 32.4034 102.183 31.861C101.84 31.3186 101.669 30.6927 101.669 30.0252C101.669 29.3576 101.84 28.7318 102.183 28.1894C102.526 27.647 102.997 27.188 103.554 26.8959C104.154 26.6039 104.797 26.437 105.525 26.437C106.253 26.437 106.939 26.6039 107.496 26.8959C108.096 27.188 108.567 27.647 108.867 28.1894C109.21 28.7318 109.381 29.3576 109.381 30.0252C109.381 30.7345 109.21 31.3186 108.867 31.9027C108.524 32.4451 108.053 32.8623 107.496 33.1961C106.896 33.4882 106.253 33.6551 105.525 33.6551C104.797 33.6551 104.154 33.4882 103.554 33.1544ZM106.853 32.1948C107.239 31.9862 107.539 31.6941 107.753 31.3186C107.967 30.9431 108.096 30.5259 108.096 30.0669C108.096 29.6079 107.967 29.1907 107.753 28.8152C107.539 28.4397 107.239 28.1476 106.853 27.939C106.468 27.7304 106.039 27.6052 105.568 27.6052C105.097 27.6052 104.668 27.7304 104.283 27.939C103.897 28.1476 103.597 28.4397 103.383 28.8152C103.169 29.1907 103.04 29.6079 103.04 30.0669C103.04 30.5259 103.169 30.9431 103.383 31.3186C103.597 31.6941 103.897 31.9862 104.283 32.1948C104.668 32.4034 105.097 32.5286 105.568 32.5286C106.039 32.5286 106.468 32.4034 106.853 32.1948Z" fill="white"/>
<path d="M113.58 30.5676H112.251V33.5299H110.923V26.5204H112.251V29.441H113.622L115.679 26.5204H117.093L114.651 29.9417L117.221 33.5716H115.722L113.58 30.5676Z" fill="white"/>
<path d="M122.363 31.9027H118.764L118.035 33.5299H116.664L119.92 26.5204H121.249L124.505 33.5299H123.091L122.363 31.9027ZM121.934 30.9014L120.563 27.8138L119.192 30.9014H121.934Z" fill="white"/>
<path d="M130.889 27.6052H128.489V33.5299H127.161V27.6052H124.762V26.5204H130.846V27.6052H130.889Z" fill="white"/>
</svg>
