<svg width="139" height="38" viewBox="0 0 139 38" fill="none" xmlns="http://www.w3.org/2000/svg">
<g opacity="0.9">
<path d="M48.7416 5.76801V17.7426H58.6664V15.6739H51.5075V12.73H58.6664V10.6215H51.5075V7.87649H58.6664V5.76801H48.7416Z" fill="white"/>
<path d="M72.1212 5.74602L72.0823 17.7206L74.7262 17.7294L74.7651 5.75481L72.1212 5.74602Z" fill="white"/>
<path d="M35.8069 5.76801L38.9389 15.117L42.1523 5.76801H46.0571V17.7426H43.5352V8.75171L40.2405 17.7426H37.5153L34.5053 8.75171V17.7426H31.9427V5.76801H35.8069Z" fill="white"/>
<path d="M64.0355 7.91627H60.0493V5.76801H70.747V7.91627H66.6387V17.7426H64.0355V7.91627Z" fill="white"/>
<path d="M104.019 5.76801V17.7426H113.944V15.6739H106.745V12.73H113.944V10.6215H106.745V7.83671H113.944V5.76801H104.019Z" fill="white"/>
<path d="M128.302 5.76801V7.87649H132.248V17.7426H134.892V7.87649H139V5.76801H128.302Z" fill="white"/>
<path d="M85.9187 14.3611L80.8343 5.76801H77.4989V17.7426H80.1835L80.1021 8.67215L85.4306 17.7426H88.4406V5.76801H85.7967L85.9187 14.3611Z" fill="white"/>
<path d="M96.2502 14.6793L92.5488 5.76801H89.5795L94.9893 17.7426H97.7145L102.88 5.76801H100.114L96.2502 14.6793Z" fill="white"/>
<path d="M123.462 10.7808H120.005C118.906 10.7808 118.378 10.3432 118.378 9.468C118.378 8.39387 118.988 7.87669 120.371 7.87669H126.797V5.72842H119.964C118.459 5.72842 117.32 6.0069 116.669 6.60364C115.937 7.20039 115.612 8.11539 115.612 9.38844C115.612 11.7754 116.873 12.8495 119.761 12.8495H122.852C124.194 12.8495 124.682 13.2076 124.682 14.2419C124.682 15.2365 124.153 15.5945 122.648 15.5945H116.1V17.7428H123.055C126.065 17.7428 127.407 16.6289 127.407 14.1226C127.407 12.8893 127.123 12.0539 126.513 11.4969C125.903 11.0593 124.886 10.7808 123.462 10.7808Z" fill="white"/>
<path d="M19.5367 1.4319C19.5367 1.4319 17.9097 0.755596 17.7064 0.676031C17.4623 0.596465 17.2589 0.556682 17.0149 0.636248C16.7708 0.67603 16.6081 0.835162 16.4861 0.874944C16.4047 0.95451 12.866 4.33604 12.866 4.33604C12.866 4.33604 9.40858 0.994293 9.28656 0.874944C9.16453 0.755596 9.04251 0.636248 8.75778 0.596465C8.47305 0.556682 8.229 0.596465 8.0663 0.636248C7.9036 0.715813 6.39861 1.31255 6.23591 1.39212C6.03253 1.47169 5.82916 1.63082 5.70713 1.82973C5.58511 1.98886 5.54443 2.18778 5.54443 2.38669V7.08105L8.79847 8.87128V4.81344L10.3034 6.24562C10.4255 6.36496 10.5475 6.44453 10.6695 6.48431C10.7916 6.52409 10.8729 6.56388 11.0356 6.56388H14.6964C14.8184 6.56388 14.9404 6.52409 15.0625 6.48431C15.2252 6.44453 15.3065 6.36496 15.4692 6.24562L16.9335 4.81344V8.91106L20.1876 7.12084V2.42647C20.2689 1.94908 19.9435 1.59103 19.5367 1.4319Z" fill="white"/>
<path d="M0.175201 11.5762C0.175201 11.5762 0.419243 13.2869 0.419243 13.4858C0.459918 13.7245 0.541274 13.9234 0.703974 14.1223C0.866675 14.3212 1.07006 14.361 1.19208 14.4008C1.31411 14.4406 6.11377 15.6738 6.11377 15.6738C6.11377 15.6738 4.85285 20.2488 4.81217 20.3682C4.7715 20.5273 4.73082 20.6467 4.81217 20.9649C4.89353 21.2434 5.05622 21.4025 5.17825 21.5219C5.30027 21.6412 6.60189 22.596 6.76459 22.7154C6.96797 22.8347 7.17134 22.9541 7.41539 22.9541C7.61876 22.9541 7.82215 22.9143 7.98485 22.7949C7.78147 22.9143 12.2151 20.4477 12.2151 20.4477V16.8275L8.51362 18.8962L9.08306 16.9071C9.12374 16.7479 9.12375 16.6286 9.12375 16.4695C9.08308 16.3501 9.08308 16.2308 9.00173 16.1114C8.92038 15.9523 7.17135 13.0482 7.17135 13.0482C7.08999 12.9288 7.00863 12.8492 6.92728 12.7697C6.80525 12.6901 6.68324 12.6105 6.47986 12.531C6.27649 12.4912 4.4461 12.0138 4.4461 12.0138L8.14754 9.9451L4.89352 8.15488C4.89352 8.15488 1.11072 10.2634 0.663297 10.5021C0.337895 10.7408 0.134526 11.1386 0.175201 11.5762Z" fill="white"/>
<path d="M18.9672 22.6757C18.9672 22.6757 20.3502 21.6414 20.5536 21.4822C20.7569 21.3231 20.8383 21.164 20.9603 20.9253C21.0417 20.6866 21.001 20.4877 20.9603 20.3683C20.9196 20.249 19.6587 15.6342 19.6587 15.6342C19.6587 15.6342 24.4177 14.4009 24.5397 14.4009C24.7024 14.3611 24.8245 14.3213 25.0685 14.1224C25.3126 13.8837 25.3126 13.6848 25.3532 13.5257C25.3939 13.3665 25.5973 11.815 25.5973 11.6161C25.638 11.3774 25.5973 11.1785 25.4753 10.9398C25.3939 10.7409 25.2312 10.6613 25.0685 10.542C25.2719 10.6613 20.8383 8.19479 20.8383 8.19479L17.5843 9.98502L21.2857 12.0537L19.2113 12.5709C19.0486 12.6107 18.9266 12.6902 18.8045 12.8096C18.6825 12.8892 18.6418 12.9687 18.5605 13.0881C18.4791 13.2472 16.7301 16.1513 16.7301 16.1513C16.6487 16.2707 16.6081 16.39 16.6081 16.4696C16.5674 16.6287 16.5674 16.7481 16.6487 16.947C16.6894 17.1459 17.1775 18.8963 17.1775 18.8963L13.4761 16.8276V20.4479C13.4761 20.4479 17.2589 22.5564 17.7063 22.7553C18.1537 22.994 18.6418 22.9144 18.9672 22.6757Z" fill="white"/>
<path d="M5.0155 34.0936C5.0155 32.2238 6.4798 30.8712 8.4729 30.8712C10.466 30.8712 11.9303 32.2238 11.9303 34.0936C11.9303 35.9634 10.466 37.316 8.4729 37.316C6.4798 37.3558 5.0155 35.9634 5.0155 34.0936ZM10.7507 34.0936C10.7507 32.8205 9.77451 31.8658 8.4729 31.8658C7.17128 31.8658 6.19509 32.7808 6.19509 34.0936C6.19509 35.3666 7.17128 36.3214 8.4729 36.3214C9.77451 36.3214 10.7507 35.4064 10.7507 34.0936Z" fill="white"/>
<path d="M15.3877 31.9453V33.8548H18.479V34.8494H15.3877V37.2364H14.2081V30.9507H18.8858V31.9453H15.3877Z" fill="white"/>
<path d="M22.1805 31.9453V33.8548H25.2719V34.8494H22.1805V37.2364H21.001V30.9507H25.6786V31.9453H22.1805Z" fill="white"/>
<path d="M27.7531 30.9507H28.9326V37.2364H27.7531V30.9507Z" fill="white"/>
<path d="M31.2511 34.0936C31.2511 32.2238 32.7154 30.8712 34.7085 30.8712C35.7661 30.8712 36.6609 31.2293 37.2304 31.9056L36.4576 32.6217C35.9695 32.1443 35.4 31.8658 34.7492 31.8658C33.4069 31.8658 32.4714 32.7808 32.4714 34.0936C32.4714 35.4064 33.4476 36.3214 34.7492 36.3214C35.4 36.3214 36.0101 36.0828 36.4576 35.5656L37.2304 36.2817C36.6202 36.958 35.7254 37.316 34.6678 37.316C32.7154 37.3558 31.2511 35.9634 31.2511 34.0936Z" fill="white"/>
<path d="M39.3049 30.9507H40.4845V37.2364H39.3049V30.9507Z" fill="white"/>
<path d="M47.3992 35.804H44.1859L43.5351 37.276H42.3148L45.2028 30.9903H46.3824L49.2703 37.276H48.0094L47.3992 35.804ZM46.9925 34.889L45.7722 32.144L44.552 34.889H46.9925Z" fill="white"/>
<path d="M51.1412 30.9507H52.3208V36.2418H55.6969V37.2364H51.1412V30.9507Z" fill="white"/>
<path d="M61.3508 30.9507H64.1574C66.2319 30.9507 67.6555 32.2237 67.6555 34.0935C67.6555 35.9633 66.2319 37.2364 64.1574 37.2364H61.3508V30.9507ZM64.1168 36.2418C65.5404 36.2418 66.4759 35.4063 66.4759 34.0935C66.4759 32.7807 65.5404 31.9453 64.1168 31.9453H62.5711V36.2418H64.1168Z" fill="white"/>
<path d="M69.974 30.9507H71.1536V37.2364H69.974V30.9507Z" fill="white"/>
<path d="M73.3499 36.5999L73.7566 35.6849C74.2854 36.0828 75.0989 36.3612 75.8717 36.3612C76.8886 36.3612 77.2954 36.0032 77.2954 35.5258C77.2954 34.1732 73.4719 35.0484 73.4719 32.741C73.4719 31.7067 74.2854 30.8712 76.0751 30.8712C76.8479 30.8712 77.6614 31.0701 78.2309 31.4282L77.8648 32.3432C77.2954 32.0249 76.6446 31.8658 76.0751 31.8658C75.0989 31.8658 74.6922 32.2238 74.6922 32.7012C74.6922 34.0538 78.5156 33.1786 78.5156 35.486C78.5156 36.4806 77.6614 37.3558 75.9124 37.3558C74.8955 37.3558 73.8786 37.0375 73.3499 36.5999Z" fill="white"/>
<path d="M82.0952 31.9453H79.9801V30.9507H85.4306V31.9453H83.3155V37.2364H82.1359V31.9453H82.0952Z" fill="white"/>
<path d="M91.4912 37.2364L90.1896 35.4063C90.1082 35.4063 90.0269 35.4063 89.9455 35.4063H88.4812V37.2364H87.3016V30.9507H89.9455C91.6539 30.9507 92.6708 31.7861 92.6708 33.1785C92.6708 34.1333 92.1827 34.8494 91.2878 35.1677L92.7521 37.2364H91.4912ZM89.8642 31.9453H88.4812V34.4516H89.8642C90.9217 34.4516 91.4505 33.9742 91.4505 33.1785C91.4505 32.4226 90.9217 31.9453 89.8642 31.9453Z" fill="white"/>
<path d="M94.9893 30.9507H96.1688V37.2364H94.9893V30.9507Z" fill="white"/>
<path d="M104.589 35.5257C104.589 36.5998 103.735 37.2364 102.067 37.2364H98.8535V30.9507H101.863C103.409 30.9507 104.223 31.5872 104.223 32.5818C104.223 33.2183 103.897 33.6957 103.409 33.9742C104.101 34.2129 104.589 34.73 104.589 35.5257ZM100.074 31.8657V33.6161H101.782C102.596 33.6161 103.084 33.3376 103.084 32.7409C103.084 32.1442 102.596 31.8657 101.782 31.8657H100.074ZM103.368 35.4063C103.368 34.7698 102.88 34.4913 101.986 34.4913H100.074V36.3214H101.986C102.88 36.3214 103.368 36.0429 103.368 35.4063Z" fill="white"/>
<path d="M106.745 34.4913V30.9507H107.924V34.4516C107.924 35.7246 108.534 36.2816 109.551 36.2816C110.568 36.2816 111.178 35.7246 111.178 34.4516V30.9507H112.358V34.4913C112.358 36.3214 111.3 37.3159 109.551 37.3159C107.802 37.3557 106.745 36.3611 106.745 34.4913Z" fill="white"/>
<path d="M116.344 31.9453H114.229V30.9507H119.679V31.9453H117.564V37.2364H116.385V31.9453H116.344Z" fill="white"/>
<path d="M120.981 34.0936C120.981 32.2238 122.445 30.8712 124.438 30.8712C126.431 30.8712 127.896 32.2238 127.896 34.0936C127.896 35.9634 126.431 37.316 124.438 37.316C122.445 37.3558 120.981 35.9634 120.981 34.0936ZM126.675 34.0936C126.675 32.8206 125.699 31.8658 124.398 31.8658C123.096 31.8658 122.12 32.7808 122.12 34.0936C122.12 35.3667 123.096 36.3214 124.398 36.3214C125.74 36.3214 126.675 35.4064 126.675 34.0936Z" fill="white"/>
<path d="M134.363 37.2364L133.061 35.4063C132.98 35.4063 132.898 35.4063 132.817 35.4063H131.353V37.2364H130.173V30.9507H132.817C134.525 30.9507 135.542 31.7861 135.542 33.1785C135.542 34.1333 135.054 34.8494 134.159 35.1677L135.624 37.2364H134.363ZM132.736 31.9453H131.353V34.4516H132.736C133.793 34.4516 134.322 33.9742 134.322 33.1785C134.322 32.4226 133.793 31.9453 132.736 31.9453Z" fill="white"/>
</g>
</svg>
