<svg width="17" height="16" viewBox="0 0 17 16" fill="none" xmlns="http://www.w3.org/2000/svg">
<path d="M16.9188 12.7721C16.8853 12.6795 16.8072 12.5367 16.7514 12.4548C16.4 11.9525 14.5117 10.5539 13.5689 10.0965C13.0306 9.83477 12.6317 9.74753 12.3361 9.82945C12.0181 9.9141 11.8507 10.0542 11.318 10.6808C11.1032 10.932 10.8829 11.1673 10.8243 11.2042C10.6792 11.2994 10.3947 11.3761 10.1939 11.3761C9.72812 11.3735 8.88297 11.0879 8.23307 10.7125C7.72822 10.4217 7.08115 9.90088 6.58464 9.38532C5.99887 8.77988 5.60006 8.24583 5.28484 7.64303C4.87763 6.8684 4.77443 6.39513 4.94455 6.04878C4.9864 5.96154 5.04219 5.86903 5.06726 5.83991C5.09238 5.81351 5.35459 5.60991 5.64464 5.38782C6.21367 4.95954 6.3057 4.86172 6.41169 4.56825C6.54557 4.19545 6.50933 3.81474 6.30293 3.43141C6.14392 3.14057 5.72833 2.50606 5.42711 2.09627C5.02824 1.55695 4.03527 0.404241 3.8372 0.248209C3.48018 -0.026722 3.02279 -0.0743408 2.51789 0.110766C1.98519 0.306414 0.98661 1.06783 0.559845 1.59925C0.174928 2.08041 0.0271454 2.42145 0.00480851 2.87091C-0.0147025 3.24103 0.0187561 3.39437 0.225165 3.86764C1.84014 7.57956 4.25001 10.5433 7.56088 12.8963C9.2902 14.1257 11.0837 15.0616 12.9441 15.7015C14.0291 16.0742 14.5005 16.0927 15.0556 15.7861C15.2898 15.6538 15.87 15.0907 16.1936 14.6809C16.7291 13.9988 16.9272 13.6842 16.9829 13.433C17.022 13.2612 16.9913 12.9624 16.9188 12.7721Z" fill="#E63946"/>
</svg>
